<?xml version="1.0" encoding="UTF-8" standalone="no"?>
<!DOCTYPE svg PUBLIC "-//W3C//DTD SVG 1.1//EN"
 "http://www.w3.org/Graphics/SVG/1.1/DTD/svg11.dtd">
<!-- Generated by graphviz version 2.43.0 (0)
 -->
<!-- Title: gsl::v_view&lt; T, N &gt; Pages: 1 -->
<svg width="463pt" height="28pt"
 viewBox="0.00 0.00 463.00 28.00" xmlns="http://www.w3.org/2000/svg" xmlns:xlink="http://www.w3.org/1999/xlink">
<g id="graph0" class="graph" transform="scale(1 1) rotate(0) translate(4 24)">
<title>gsl::v_view&lt; T, N &gt;</title>
<polygon fill="white" stroke="transparent" points="-4,4 -4,-24 459,-24 459,4 -4,4"/>
<!-- Node1 -->
<g id="node1" class="node">
<title>Node1</title>
<g id="a_node1"><a xlink:title="Interface to vector&#45;storage not owned by interface.">
<polygon fill="#bfbfbf" stroke="black" points="0,-0.5 0,-19.5 113,-19.5 113,-0.5 0,-0.5"/>
<text text-anchor="middle" x="56.5" y="-7.5" font-family="Helvetica,sans-Serif" font-size="10.00">gsl::v_view&lt; T, N &gt;</text>
</a>
</g>
</g>
<!-- Node2 -->
<g id="node2" class="node">
<title>Node2</title>
<g id="a_node2"><a xlink:href="structgsl_1_1v__iface.html" target="_top" xlink:title=" ">
<polygon fill="white" stroke="black" points="149,-0.5 149,-19.5 282,-19.5 282,-0.5 149,-0.5"/>
<text text-anchor="middle" x="215.5" y="-7.5" font-family="Helvetica,sans-Serif" font-size="10.00">v_iface&lt; T, 0, v_view &gt;</text>
</a>
</g>
</g>
<!-- Node1&#45;&gt;Node2 -->
<g id="edge1" class="edge">
<title>Node1&#45;&gt;Node2</title>
<path fill="none" stroke="midnightblue" d="M123.46,-10C131.9,-10 140.53,-10 148.96,-10"/>
<polygon fill="midnightblue" stroke="midnightblue" points="123.29,-6.5 113.29,-10 123.29,-13.5 123.29,-6.5"/>
</g>
<!-- Node3 -->
<g id="node3" class="node">
<title>Node3</title>
<g id="a_node3"><a xlink:href="structgsl_1_1vector__view.html" target="_top" xlink:title="Constructor&#45;type for vector&#45;by&#45;reference whose storage is not owned by instance of view.">
<polygon fill="white" stroke="black" points="318,-0.5 318,-19.5 455,-19.5 455,-0.5 318,-0.5"/>
<text text-anchor="middle" x="386.5" y="-7.5" font-family="Helvetica,sans-Serif" font-size="10.00">gsl::vector_view&lt; T, S &gt;</text>
</a>
</g>
</g>
<!-- Node2&#45;&gt;Node3 -->
<g id="edge2" class="edge">
<title>Node2&#45;&gt;Node3</title>
<path fill="none" stroke="midnightblue" d="M292.55,-10C301,-10 309.57,-10 317.91,-10"/>
<polygon fill="midnightblue" stroke="midnightblue" points="292.32,-6.5 282.32,-10 292.32,-13.5 292.32,-6.5"/>
</g>
</g>
</svg>
