<?xml version="1.0" encoding="UTF-8" standalone="no"?>
<!DOCTYPE svg PUBLIC "-//W3C//DTD SVG 1.1//EN"
 "http://www.w3.org/Graphics/SVG/1.1/DTD/svg11.dtd">
<!-- Generated by graphviz version 2.43.0 (0)
 -->
<!-- Title: include/gslcpp/wrap/complex.hpp Pages: 1 -->
<svg width="261pt" height="66pt"
 viewBox="0.00 0.00 261.00 66.00" xmlns="http://www.w3.org/2000/svg" xmlns:xlink="http://www.w3.org/1999/xlink">
<g id="graph0" class="graph" transform="scale(1 1) rotate(0) translate(4 62)">
<title>include/gslcpp/wrap/complex.hpp</title>
<polygon fill="white" stroke="transparent" points="-4,4 -4,-62 257,-62 257,4 -4,4"/>
<!-- Node1 -->
<g id="node1" class="node">
<title>Node1</title>
<g id="a_node1"><a xlink:title="Definition of gsl::complex.">
<polygon fill="#bfbfbf" stroke="black" points="0,-14 0,-44 113,-44 113,-14 0,-14"/>
<text text-anchor="start" x="8" y="-32" font-family="Helvetica,sans-Serif" font-size="10.00">include/gslcpp/wrap</text>
<text text-anchor="middle" x="56.5" y="-21" font-family="Helvetica,sans-Serif" font-size="10.00">/complex.hpp</text>
</a>
</g>
</g>
<!-- Node2 -->
<g id="node2" class="node">
<title>Node2</title>
<g id="a_node2"><a xlink:title=" ">
<polygon fill="white" stroke="#bfbfbf" points="171.5,-38.5 171.5,-57.5 230.5,-57.5 230.5,-38.5 171.5,-38.5"/>
<text text-anchor="middle" x="201" y="-45.5" font-family="Helvetica,sans-Serif" font-size="10.00">complex</text>
</a>
</g>
</g>
<!-- Node1&#45;&gt;Node2 -->
<g id="edge1" class="edge">
<title>Node1&#45;&gt;Node2</title>
<path fill="none" stroke="midnightblue" d="M113,-36.4C128.97,-38.53 146.06,-40.81 160.82,-42.78"/>
<polygon fill="midnightblue" stroke="midnightblue" points="160.74,-46.3 171.11,-44.15 161.66,-39.36 160.74,-46.3"/>
</g>
<!-- Node3 -->
<g id="node3" class="node">
<title>Node3</title>
<g id="a_node3"><a xlink:title=" ">
<polygon fill="white" stroke="#bfbfbf" points="149,-0.5 149,-19.5 253,-19.5 253,-0.5 149,-0.5"/>
<text text-anchor="middle" x="201" y="-7.5" font-family="Helvetica,sans-Serif" font-size="10.00">gsl/gsl_complex.h</text>
</a>
</g>
</g>
<!-- Node1&#45;&gt;Node3 -->
<g id="edge2" class="edge">
<title>Node1&#45;&gt;Node3</title>
<path fill="none" stroke="midnightblue" d="M113,-21.6C121.34,-20.49 129.97,-19.34 138.42,-18.21"/>
<polygon fill="midnightblue" stroke="midnightblue" points="139.16,-21.64 148.61,-16.85 138.23,-14.7 139.16,-21.64"/>
</g>
</g>
</svg>
