<?xml version="1.0" encoding="UTF-8" standalone="no"?>
<!DOCTYPE svg PUBLIC "-//W3C//DTD SVG 1.1//EN"
 "http://www.w3.org/Graphics/SVG/1.1/DTD/svg11.dtd">
<!-- Generated by graphviz version 2.43.0 (0)
 -->
<!-- Title: include/gslcpp/wrap/container.hpp Pages: 1 -->
<svg width="392pt" height="123pt"
 viewBox="0.00 0.00 392.00 123.00" xmlns="http://www.w3.org/2000/svg" xmlns:xlink="http://www.w3.org/1999/xlink">
<g id="graph0" class="graph" transform="scale(1 1) rotate(0) translate(4 119)">
<title>include/gslcpp/wrap/container.hpp</title>
<polygon fill="white" stroke="transparent" points="-4,4 -4,-119 388,-119 388,4 -4,4"/>
<!-- Node1 -->
<g id="node1" class="node">
<title>Node1</title>
<g id="a_node1"><a xlink:title="Definition of gsl::container, w_vector, w_vector_view, w_matrix, w_matrix_view.">
<polygon fill="#bfbfbf" stroke="black" points="0,-33 0,-63 113,-63 113,-33 0,-33"/>
<text text-anchor="start" x="8" y="-51" font-family="Helvetica,sans-Serif" font-size="10.00">include/gslcpp/wrap</text>
<text text-anchor="middle" x="56.5" y="-40" font-family="Helvetica,sans-Serif" font-size="10.00">/container.hpp</text>
</a>
</g>
</g>
<!-- Node2 -->
<g id="node2" class="node">
<title>Node2</title>
<g id="a_node2"><a xlink:href="complex_8hpp.html" target="_top" xlink:title="Definition of gsl::complex.">
<polygon fill="white" stroke="black" points="156.5,-76.5 156.5,-95.5 236.5,-95.5 236.5,-76.5 156.5,-76.5"/>
<text text-anchor="middle" x="196.5" y="-83.5" font-family="Helvetica,sans-Serif" font-size="10.00">complex.hpp</text>
</a>
</g>
</g>
<!-- Node1&#45;&gt;Node2 -->
<g id="edge1" class="edge">
<title>Node1&#45;&gt;Node2</title>
<path fill="none" stroke="midnightblue" d="M112.04,-63.02C125,-66.59 138.67,-70.35 151.12,-73.78"/>
<polygon fill="midnightblue" stroke="midnightblue" points="150.22,-77.16 160.79,-76.44 152.08,-70.41 150.22,-77.16"/>
</g>
<!-- Node5 -->
<g id="node5" class="node">
<title>Node5</title>
<g id="a_node5"><a xlink:title=" ">
<polygon fill="white" stroke="#bfbfbf" points="149,-38.5 149,-57.5 244,-57.5 244,-38.5 149,-38.5"/>
<text text-anchor="middle" x="196.5" y="-45.5" font-family="Helvetica,sans-Serif" font-size="10.00">gsl/gsl_matrix.h</text>
</a>
</g>
</g>
<!-- Node1&#45;&gt;Node5 -->
<g id="edge4" class="edge">
<title>Node1&#45;&gt;Node5</title>
<path fill="none" stroke="midnightblue" d="M113.23,-48C121.63,-48 130.31,-48 138.73,-48"/>
<polygon fill="midnightblue" stroke="midnightblue" points="138.85,-51.5 148.85,-48 138.85,-44.5 138.85,-51.5"/>
</g>
<!-- Node6 -->
<g id="node6" class="node">
<title>Node6</title>
<g id="a_node6"><a xlink:title=" ">
<polygon fill="white" stroke="#bfbfbf" points="150.5,-0.5 150.5,-19.5 242.5,-19.5 242.5,-0.5 150.5,-0.5"/>
<text text-anchor="middle" x="196.5" y="-7.5" font-family="Helvetica,sans-Serif" font-size="10.00">gsl/gsl_vector.h</text>
</a>
</g>
</g>
<!-- Node1&#45;&gt;Node6 -->
<g id="edge5" class="edge">
<title>Node1&#45;&gt;Node6</title>
<path fill="none" stroke="midnightblue" d="M112.04,-32.98C125,-29.41 138.67,-25.65 151.12,-22.22"/>
<polygon fill="midnightblue" stroke="midnightblue" points="152.08,-25.59 160.79,-19.56 150.22,-18.84 152.08,-25.59"/>
</g>
<!-- Node3 -->
<g id="node3" class="node">
<title>Node3</title>
<g id="a_node3"><a xlink:title=" ">
<polygon fill="white" stroke="#bfbfbf" points="302.5,-95.5 302.5,-114.5 361.5,-114.5 361.5,-95.5 302.5,-95.5"/>
<text text-anchor="middle" x="332" y="-102.5" font-family="Helvetica,sans-Serif" font-size="10.00">complex</text>
</a>
</g>
</g>
<!-- Node2&#45;&gt;Node3 -->
<g id="edge2" class="edge">
<title>Node2&#45;&gt;Node3</title>
<path fill="none" stroke="midnightblue" d="M236.83,-91.6C254.16,-94.06 274.46,-96.95 291.78,-99.42"/>
<polygon fill="midnightblue" stroke="midnightblue" points="291.72,-102.94 302.11,-100.89 292.71,-96.01 291.72,-102.94"/>
</g>
<!-- Node4 -->
<g id="node4" class="node">
<title>Node4</title>
<g id="a_node4"><a xlink:title=" ">
<polygon fill="white" stroke="#bfbfbf" points="280,-57.5 280,-76.5 384,-76.5 384,-57.5 280,-57.5"/>
<text text-anchor="middle" x="332" y="-64.5" font-family="Helvetica,sans-Serif" font-size="10.00">gsl/gsl_complex.h</text>
</a>
</g>
</g>
<!-- Node2&#45;&gt;Node4 -->
<g id="edge3" class="edge">
<title>Node2&#45;&gt;Node4</title>
<path fill="none" stroke="midnightblue" d="M236.83,-80.4C247.08,-78.94 258.37,-77.34 269.46,-75.76"/>
<polygon fill="midnightblue" stroke="midnightblue" points="270.16,-79.19 279.56,-74.32 269.17,-72.26 270.16,-79.19"/>
</g>
</g>
</svg>
