<?xml version="1.0" encoding="UTF-8" standalone="no"?>
<!DOCTYPE svg PUBLIC "-//W3C//DTD SVG 1.1//EN"
 "http://www.w3.org/Graphics/SVG/1.1/DTD/svg11.dtd">
<!-- Generated by graphviz version 2.43.0 (0)
 -->
<!-- Title: include/gslcpp/vec Pages: 1 -->
<svg width="168pt" height="95pt"
 viewBox="0.00 0.00 168.00 95.00" xmlns="http://www.w3.org/2000/svg" xmlns:xlink="http://www.w3.org/1999/xlink">
<g id="graph0" class="graph" transform="scale(1 1) rotate(0) translate(4 91)">
<title>include/gslcpp/vec</title>
<polygon fill="white" stroke="transparent" points="-4,4 -4,-91 164,-91 164,4 -4,4"/>
<g id="clust1" class="cluster">
<title>clusterdir_cc1dfcd4d753b3fec5c7ce978240eade</title>
<g id="a_clust1"><a xlink:href="dir_cc1dfcd4d753b3fec5c7ce978240eade.html" target="_top" xlink:title="gslcpp">
<polygon fill="#ddddee" stroke="black" points="8,-8 8,-79 78,-79 78,-8 8,-8"/>
<text text-anchor="middle" x="43" y="-67" font-family="Helvetica,sans-Serif" font-size="10.00">gslcpp</text>
</a>
</g>
</g>
<!-- dir_b5c87583ef6459d0b9eacb7485ff6380 -->
<g id="node1" class="node">
<title>dir_b5c87583ef6459d0b9eacb7485ff6380</title>
<g id="a_node1"><a xlink:href="dir_b5c87583ef6459d0b9eacb7485ff6380.html" target="_top" xlink:title="vec">
<polygon fill="#eeeeff" stroke="black" points="70,-52 16,-52 16,-16 70,-16 70,-52"/>
<text text-anchor="middle" x="43" y="-31.5" font-family="Helvetica,sans-Serif" font-size="10.00">vec</text>
</a>
</g>
</g>
<!-- dir_d5e35ae9e09cb994fdbd6895e3623ccc -->
<g id="node2" class="node">
<title>dir_d5e35ae9e09cb994fdbd6895e3623ccc</title>
<g id="a_node2"><a xlink:href="dir_d5e35ae9e09cb994fdbd6895e3623ccc.html" target="_top" xlink:title="wrap">
<polygon fill="none" stroke="black" points="160,-52 106,-52 106,-16 160,-16 160,-52"/>
<text text-anchor="middle" x="133" y="-31.5" font-family="Helvetica,sans-Serif" font-size="10.00">wrap</text>
</a>
</g>
</g>
<!-- dir_b5c87583ef6459d0b9eacb7485ff6380&#45;&gt;dir_d5e35ae9e09cb994fdbd6895e3623ccc -->
<g id="edge1" class="edge">
<title>dir_b5c87583ef6459d0b9eacb7485ff6380&#45;&gt;dir_d5e35ae9e09cb994fdbd6895e3623ccc</title>
<path fill="none" stroke="black" d="M70.4,-34C78.39,-34 87.31,-34 95.82,-34"/>
<polygon fill="black" stroke="black" points="95.92,-37.5 105.92,-34 95.92,-30.5 95.92,-37.5"/>
<g id="a_edge1&#45;headlabel"><a xlink:href="dir_000003_000004.html" target="_top" xlink:title="42">
<text text-anchor="middle" x="92.32" y="-37.84" font-family="Helvetica,sans-Serif" font-size="10.00">42</text>
</a>
</g>
</g>
</g>
</svg>
