<?xml version="1.0" encoding="UTF-8" standalone="no"?>
<!DOCTYPE svg PUBLIC "-//W3C//DTD SVG 1.1//EN"
 "http://www.w3.org/Graphics/SVG/1.1/DTD/svg11.dtd">
<!-- Generated by graphviz version 2.43.0 (0)
 -->
<!-- Title: include/gslcpp Pages: 1 -->
<svg width="290pt" height="165pt"
 viewBox="0.00 0.00 290.00 165.00" xmlns="http://www.w3.org/2000/svg" xmlns:xlink="http://www.w3.org/1999/xlink">
<g id="graph0" class="graph" transform="scale(1 1) rotate(0) translate(4 161)">
<title>include/gslcpp</title>
<polygon fill="white" stroke="transparent" points="-4,4 -4,-161 286,-161 286,4 -4,4"/>
<g id="clust1" class="cluster">
<title>clusterdir_d44c64559bbebec7f509842c48db8b23</title>
<g id="a_clust1"><a xlink:href="dir_d44c64559bbebec7f509842c48db8b23.html" target="_top" xlink:title="include">
<polygon fill="#ddddee" stroke="black" points="8,-8 8,-149 274,-149 274,-8 8,-8"/>
<text text-anchor="middle" x="141" y="-137" font-family="Helvetica,sans-Serif" font-size="10.00">include</text>
</a>
</g>
</g>
<g id="clust2" class="cluster">
<title>clusterdir_cc1dfcd4d753b3fec5c7ce978240eade</title>
<g id="a_clust2"><a xlink:href="dir_cc1dfcd4d753b3fec5c7ce978240eade.html" target="_top">
<polygon fill="#eeeeff" stroke="black" points="16,-16 16,-122 266,-122 266,-16 16,-16"/>
</a>
</g>
</g>
<!-- dir_cc1dfcd4d753b3fec5c7ce978240eade -->
<g id="node1" class="node">
<title>dir_cc1dfcd4d753b3fec5c7ce978240eade</title>
<text text-anchor="middle" x="51" y="-93.5" font-family="Helvetica,sans-Serif" font-size="10.00">gslcpp</text>
</g>
<!-- dir_b5c87583ef6459d0b9eacb7485ff6380 -->
<g id="node3" class="node">
<title>dir_b5c87583ef6459d0b9eacb7485ff6380</title>
<g id="a_node3"><a xlink:href="dir_b5c87583ef6459d0b9eacb7485ff6380.html" target="_top" xlink:title="vec">
<polygon fill="white" stroke="black" points="168,-85 114,-85 114,-49 168,-49 168,-85"/>
<text text-anchor="middle" x="141" y="-64.5" font-family="Helvetica,sans-Serif" font-size="10.00">vec</text>
</a>
</g>
</g>
<!-- dir_cc1dfcd4d753b3fec5c7ce978240eade&#45;&gt;dir_b5c87583ef6459d0b9eacb7485ff6380 -->
<g id="edge2" class="edge">
<title>dir_cc1dfcd4d753b3fec5c7ce978240eade&#45;&gt;dir_b5c87583ef6459d0b9eacb7485ff6380</title>
<path fill="none" stroke="black" d="M78.4,-87.3C86.57,-84.61 95.7,-81.6 104.38,-78.74"/>
<polygon fill="black" stroke="black" points="105.52,-82.05 113.92,-75.59 103.33,-75.4 105.52,-82.05"/>
<g id="a_edge2&#45;headlabel"><a xlink:href="dir_000001_000003.html" target="_top" xlink:title="3">
<text text-anchor="middle" x="102.99" y="-83.37" font-family="Helvetica,sans-Serif" font-size="10.00">3</text>
</a>
</g>
</g>
<!-- dir_d5e35ae9e09cb994fdbd6895e3623ccc -->
<g id="node4" class="node">
<title>dir_d5e35ae9e09cb994fdbd6895e3623ccc</title>
<g id="a_node4"><a xlink:href="dir_d5e35ae9e09cb994fdbd6895e3623ccc.html" target="_top" xlink:title="wrap">
<polygon fill="white" stroke="black" points="258,-103 204,-103 204,-67 258,-67 258,-103"/>
<text text-anchor="middle" x="231" y="-82.5" font-family="Helvetica,sans-Serif" font-size="10.00">wrap</text>
</a>
</g>
</g>
<!-- dir_cc1dfcd4d753b3fec5c7ce978240eade&#45;&gt;dir_d5e35ae9e09cb994fdbd6895e3623ccc -->
<g id="edge3" class="edge">
<title>dir_cc1dfcd4d753b3fec5c7ce978240eade&#45;&gt;dir_d5e35ae9e09cb994fdbd6895e3623ccc</title>
<path fill="none" stroke="black" d="M78.31,-96.5C101.85,-96.71 137.28,-96.48 168,-94 176.4,-93.32 185.4,-92.23 193.86,-91.03"/>
<polygon fill="black" stroke="black" points="194.46,-94.48 203.84,-89.55 193.43,-87.56 194.46,-94.48"/>
<g id="a_edge3&#45;headlabel"><a xlink:href="dir_000001_000004.html" target="_top" xlink:title="43">
<text text-anchor="middle" x="191.32" y="-95.32" font-family="Helvetica,sans-Serif" font-size="10.00">43</text>
</a>
</g>
</g>
<!-- dir_29771576853012d83eee3155879d10be -->
<g id="node2" class="node">
<title>dir_29771576853012d83eee3155879d10be</title>
<g id="a_node2"><a xlink:href="dir_29771576853012d83eee3155879d10be.html" target="_top" xlink:title="doc">
<polygon fill="white" stroke="black" points="78,-60 24,-60 24,-24 78,-24 78,-60"/>
<text text-anchor="middle" x="51" y="-39.5" font-family="Helvetica,sans-Serif" font-size="10.00">doc</text>
</a>
</g>
</g>
<!-- dir_b5c87583ef6459d0b9eacb7485ff6380&#45;&gt;dir_d5e35ae9e09cb994fdbd6895e3623ccc -->
<g id="edge1" class="edge">
<title>dir_b5c87583ef6459d0b9eacb7485ff6380&#45;&gt;dir_d5e35ae9e09cb994fdbd6895e3623ccc</title>
<path fill="none" stroke="black" d="M168.4,-72.4C176.48,-74.05 185.51,-75.9 194.1,-77.66"/>
<polygon fill="black" stroke="black" points="193.42,-81.09 203.92,-79.67 194.82,-74.23 193.42,-81.09"/>
<g id="a_edge1&#45;headlabel"><a xlink:href="dir_000003_000004.html" target="_top" xlink:title="42">
<text text-anchor="middle" x="189.33" y="-80.65" font-family="Helvetica,sans-Serif" font-size="10.00">42</text>
</a>
</g>
</g>
</g>
</svg>
