<?xml version="1.0" encoding="UTF-8" standalone="no"?>
<!DOCTYPE svg PUBLIC "-//W3C//DTD SVG 1.1//EN"
 "http://www.w3.org/Graphics/SVG/1.1/DTD/svg11.dtd">
<!-- Generated by graphviz version 2.43.0 (0)
 -->
<!-- Title: include/gslcpp/wrap/element.hpp Pages: 1 -->
<svg width="589pt" height="83pt"
 viewBox="0.00 0.00 589.00 83.00" xmlns="http://www.w3.org/2000/svg" xmlns:xlink="http://www.w3.org/1999/xlink">
<g id="graph0" class="graph" transform="scale(1 1) rotate(0) translate(4 79)">
<title>include/gslcpp/wrap/element.hpp</title>
<polygon fill="white" stroke="transparent" points="-4,4 -4,-79 585,-79 585,4 -4,4"/>
<!-- Node1 -->
<g id="node1" class="node">
<title>Node1</title>
<g id="a_node1"><a xlink:title="Definition for gsl::element, gsl::element_t.">
<polygon fill="#bfbfbf" stroke="black" points="0,-22.5 0,-52.5 113,-52.5 113,-22.5 0,-22.5"/>
<text text-anchor="start" x="8" y="-40.5" font-family="Helvetica,sans-Serif" font-size="10.00">include/gslcpp/wrap</text>
<text text-anchor="middle" x="56.5" y="-29.5" font-family="Helvetica,sans-Serif" font-size="10.00">/element.hpp</text>
</a>
</g>
</g>
<!-- Node2 -->
<g id="node2" class="node">
<title>Node2</title>
<g id="a_node2"><a xlink:href="v-iface_8hpp.html" target="_top" xlink:title="Definition for gsl::v_iface.">
<polygon fill="white" stroke="black" points="298,-22.5 298,-52.5 405,-52.5 405,-22.5 298,-22.5"/>
<text text-anchor="start" x="306" y="-40.5" font-family="Helvetica,sans-Serif" font-size="10.00">include/gslcpp/vec</text>
<text text-anchor="middle" x="351.5" y="-29.5" font-family="Helvetica,sans-Serif" font-size="10.00">/v&#45;iface.hpp</text>
</a>
</g>
</g>
<!-- Node1&#45;&gt;Node2 -->
<g id="edge1" class="edge">
<title>Node1&#45;&gt;Node2</title>
<path fill="none" stroke="midnightblue" d="M123.23,-39.91C131.9,-40.16 140.66,-40.36 149,-40.5 199.22,-41.32 211.78,-41.35 262,-40.5 273.53,-40.3 285.9,-39.97 297.63,-39.59"/>
<polygon fill="midnightblue" stroke="midnightblue" points="123.24,-36.41 113.14,-39.62 123.03,-43.41 123.24,-36.41"/>
</g>
<!-- Node5 -->
<g id="node5" class="node">
<title>Node5</title>
<g id="a_node5"><a xlink:href="sum_8hpp.html" target="_top" xlink:title="Definition of gsl::w_sum().">
<polygon fill="white" stroke="black" points="149,-0.5 149,-30.5 262,-30.5 262,-0.5 149,-0.5"/>
<text text-anchor="start" x="157" y="-18.5" font-family="Helvetica,sans-Serif" font-size="10.00">include/gslcpp/wrap</text>
<text text-anchor="middle" x="205.5" y="-7.5" font-family="Helvetica,sans-Serif" font-size="10.00">/sum.hpp</text>
</a>
</g>
</g>
<!-- Node1&#45;&gt;Node5 -->
<g id="edge4" class="edge">
<title>Node1&#45;&gt;Node5</title>
<path fill="none" stroke="midnightblue" d="M123.08,-27.69C131.68,-26.4 140.43,-25.09 148.85,-23.83"/>
<polygon fill="midnightblue" stroke="midnightblue" points="122.45,-24.24 113.07,-29.18 123.48,-31.16 122.45,-24.24"/>
</g>
<!-- Node3 -->
<g id="node3" class="node">
<title>Node3</title>
<g id="a_node3"><a xlink:href="vector-view_8hpp.html" target="_top" xlink:title="Definition for gsl::vector_view.">
<polygon fill="white" stroke="black" points="451,-44.5 451,-74.5 571,-74.5 571,-44.5 451,-44.5"/>
<text text-anchor="start" x="459" y="-62.5" font-family="Helvetica,sans-Serif" font-size="10.00">include/gslcpp/vector</text>
<text text-anchor="middle" x="511" y="-51.5" font-family="Helvetica,sans-Serif" font-size="10.00">&#45;view.hpp</text>
</a>
</g>
</g>
<!-- Node2&#45;&gt;Node3 -->
<g id="edge2" class="edge">
<title>Node2&#45;&gt;Node3</title>
<path fill="none" stroke="midnightblue" d="M415.46,-46.29C427.1,-47.92 439.22,-49.61 450.75,-51.22"/>
<polygon fill="midnightblue" stroke="midnightblue" points="415.77,-42.8 405.38,-44.89 414.8,-49.74 415.77,-42.8"/>
</g>
<!-- Node4 -->
<g id="node4" class="node">
<title>Node4</title>
<g id="a_node4"><a xlink:href="vector_8hpp.html" target="_top" xlink:title="Definition for gsl::vector.">
<polygon fill="white" stroke="black" points="441,-6 441,-25 581,-25 581,-6 441,-6"/>
<text text-anchor="middle" x="511" y="-13" font-family="Helvetica,sans-Serif" font-size="10.00">include/gslcpp/vector.hpp</text>
</a>
</g>
</g>
<!-- Node2&#45;&gt;Node4 -->
<g id="edge3" class="edge">
<title>Node2&#45;&gt;Node4</title>
<path fill="none" stroke="midnightblue" d="M415.44,-28.71C424.13,-27.49 433.09,-26.24 441.87,-25.02"/>
<polygon fill="midnightblue" stroke="midnightblue" points="414.8,-25.26 405.38,-30.11 415.77,-32.2 414.8,-25.26"/>
</g>
<!-- Node5&#45;&gt;Node2 -->
<g id="edge5" class="edge">
<title>Node5&#45;&gt;Node2</title>
<path fill="none" stroke="midnightblue" d="M272.17,-25.53C280.76,-26.85 289.47,-28.18 297.81,-29.45"/>
<polygon fill="midnightblue" stroke="midnightblue" points="272.59,-22.06 262.17,-24.01 271.53,-28.98 272.59,-22.06"/>
</g>
</g>
</svg>
