<?xml version="1.0" encoding="UTF-8" standalone="no"?>
<!DOCTYPE svg PUBLIC "-//W3C//DTD SVG 1.1//EN"
 "http://www.w3.org/Graphics/SVG/1.1/DTD/svg11.dtd">
<!-- Generated by graphviz version 2.43.0 (0)
 -->
<!-- Title: Graph Legend Pages: 1 -->
<svg width="406pt" height="212pt"
 viewBox="0.00 0.00 406.00 212.00" xmlns="http://www.w3.org/2000/svg" xmlns:xlink="http://www.w3.org/1999/xlink">
<g id="graph0" class="graph" transform="scale(1 1) rotate(0) translate(4 208)">
<title>Graph Legend</title>
<polygon fill="white" stroke="transparent" points="-4,4 -4,-208 402,-208 402,4 -4,4"/>
<!-- Node9 -->
<g id="node1" class="node">
<title>Node9</title>
<polygon fill="#bfbfbf" stroke="black" points="398,-111 338,-111 338,-92 398,-92 398,-111"/>
<text text-anchor="middle" x="368" y="-99" font-family="Helvetica,sans-Serif" font-size="10.00">Inherited</text>
</g>
<!-- Node10 -->
<g id="node2" class="node">
<title>Node10</title>
<polygon fill="none" stroke="black" points="226.5,-204 156.5,-204 156.5,-185 226.5,-185 226.5,-204"/>
<text text-anchor="middle" x="191.5" y="-192" font-family="Helvetica,sans-Serif" font-size="10.00">PublicBase</text>
</g>
<!-- Node10&#45;&gt;Node9 -->
<g id="edge1" class="edge">
<title>Node10&#45;&gt;Node9</title>
<path fill="none" stroke="midnightblue" d="M236.5,-182.76C262.06,-174.8 294.2,-162.74 320,-146.5 335.49,-136.75 350.19,-121.32 358.91,-111.3"/>
<polygon fill="midnightblue" stroke="midnightblue" points="235.27,-179.48 226.7,-185.72 237.29,-186.18 235.27,-179.48"/>
</g>
<!-- Node11 -->
<g id="node3" class="node">
<title>Node11</title>
<polygon fill="none" stroke="red" points="69,-204 5,-204 5,-185 69,-185 69,-204"/>
<text text-anchor="middle" x="37" y="-192" font-family="Helvetica,sans-Serif" font-size="10.00">Truncated</text>
</g>
<!-- Node11&#45;&gt;Node10 -->
<g id="edge2" class="edge">
<title>Node11&#45;&gt;Node10</title>
<path fill="none" stroke="midnightblue" d="M79.51,-194.5C103.63,-194.5 133.66,-194.5 156.4,-194.5"/>
<polygon fill="midnightblue" stroke="midnightblue" points="79.23,-191 69.23,-194.5 79.23,-198 79.23,-191"/>
</g>
<!-- Node13 -->
<g id="node4" class="node">
<title>Node13</title>
<polygon fill="none" stroke="black" points="235,-167 148,-167 148,-148 235,-148 235,-167"/>
<text text-anchor="middle" x="191.5" y="-155" font-family="Helvetica,sans-Serif" font-size="10.00">ProtectedBase</text>
</g>
<!-- Node13&#45;&gt;Node9 -->
<g id="edge3" class="edge">
<title>Node13&#45;&gt;Node9</title>
<path fill="none" stroke="darkgreen" d="M245.03,-145.72C268.29,-139.93 295.81,-132.31 320,-123.5 329.65,-119.99 340.03,-115.24 348.57,-111.05"/>
<polygon fill="darkgreen" stroke="darkgreen" points="243.89,-142.39 235,-148.16 245.54,-149.2 243.89,-142.39"/>
</g>
<!-- Node14 -->
<g id="node5" class="node">
<title>Node14</title>
<polygon fill="none" stroke="black" points="229,-130 154,-130 154,-111 229,-111 229,-130"/>
<text text-anchor="middle" x="191.5" y="-118" font-family="Helvetica,sans-Serif" font-size="10.00">PrivateBase</text>
</g>
<!-- Node14&#45;&gt;Node9 -->
<g id="edge4" class="edge">
<title>Node14&#45;&gt;Node9</title>
<path fill="none" stroke="#8b1a1a" d="M239.36,-115.4C270.76,-111.98 311.12,-107.58 337.97,-104.66"/>
<polygon fill="#8b1a1a" stroke="#8b1a1a" points="238.64,-111.96 229.08,-116.52 239.4,-118.91 238.64,-111.96"/>
</g>
<!-- Node15 -->
<g id="node6" class="node">
<title>Node15</title>
<polygon fill="none" stroke="#bfbfbf" points="237,-93 146,-93 146,-74 237,-74 237,-93"/>
<text text-anchor="middle" x="191.5" y="-81" font-family="Helvetica,sans-Serif" font-size="10.00">Undocumented</text>
</g>
<!-- Node15&#45;&gt;Node9 -->
<g id="edge5" class="edge">
<title>Node15&#45;&gt;Node9</title>
<path fill="none" stroke="midnightblue" d="M247.74,-89.2C277.62,-92.28 313.32,-95.96 337.82,-98.49"/>
<polygon fill="midnightblue" stroke="midnightblue" points="247.74,-85.68 237.44,-88.14 247.03,-92.64 247.74,-85.68"/>
</g>
<!-- Node16 -->
<g id="node7" class="node">
<title>Node16</title>
<polygon fill="none" stroke="black" points="232,-56 151,-56 151,-37 232,-37 232,-56"/>
<text text-anchor="middle" x="191.5" y="-44" font-family="Helvetica,sans-Serif" font-size="10.00">Templ&lt; int &gt;</text>
</g>
<!-- Node16&#45;&gt;Node9 -->
<g id="edge6" class="edge">
<title>Node16&#45;&gt;Node9</title>
<path fill="none" stroke="midnightblue" d="M234.41,-58.96C259.33,-66.46 291.54,-76.31 320,-85.5 326.23,-87.51 332.91,-89.74 339.21,-91.88"/>
<polygon fill="midnightblue" stroke="midnightblue" points="235.13,-55.52 224.55,-56 233.12,-62.23 235.13,-55.52"/>
</g>
<!-- Node17 -->
<g id="node8" class="node">
<title>Node17</title>
<polygon fill="none" stroke="black" points="74,-56 0,-56 0,-37 74,-37 74,-56"/>
<text text-anchor="middle" x="37" y="-44" font-family="Helvetica,sans-Serif" font-size="10.00">Templ&lt; T &gt;</text>
</g>
<!-- Node17&#45;&gt;Node16 -->
<g id="edge7" class="edge">
<title>Node17&#45;&gt;Node16</title>
<path fill="none" stroke="orange" stroke-dasharray="5,2" d="M84.25,-46.5C105.51,-46.5 130.48,-46.5 150.87,-46.5"/>
<polygon fill="orange" stroke="orange" points="84.14,-43 74.14,-46.5 84.14,-50 84.14,-43"/>
<text text-anchor="middle" x="110" y="-49.5" font-family="Helvetica,sans-Serif" font-size="10.00">&lt; int &gt;</text>
</g>
<!-- Node18 -->
<g id="node9" class="node">
<title>Node18</title>
<polygon fill="none" stroke="black" points="212,-19 171,-19 171,0 212,0 212,-19"/>
<text text-anchor="middle" x="191.5" y="-7" font-family="Helvetica,sans-Serif" font-size="10.00">Used</text>
</g>
<!-- Node18&#45;&gt;Node9 -->
<g id="edge8" class="edge">
<title>Node18&#45;&gt;Node9</title>
<path fill="none" stroke="#9a32cd" stroke-dasharray="5,2" d="M222.46,-14.6C249.56,-20.23 289.73,-31.16 320,-50.5 337.25,-61.52 352.31,-80.4 360.49,-91.83"/>
<polygon fill="#9a32cd" stroke="#9a32cd" points="222.9,-11.12 212.42,-12.64 221.56,-17.99 222.9,-11.12"/>
<text text-anchor="middle" x="287.5" y="-53.5" font-family="Helvetica,sans-Serif" font-size="10.00">m_usedClass</text>
</g>
</g>
</svg>
