<?xml version="1.0" encoding="UTF-8" standalone="no"?>
<!DOCTYPE svg PUBLIC "-//W3C//DTD SVG 1.1//EN"
 "http://www.w3.org/Graphics/SVG/1.1/DTD/svg11.dtd">
<!-- Generated by graphviz version 2.43.0 (0)
 -->
<!-- Title: Graphical Class Hierarchy Pages: 1 -->
<svg width="258pt" height="116pt"
 viewBox="0.00 0.00 258.00 115.50" xmlns="http://www.w3.org/2000/svg" xmlns:xlink="http://www.w3.org/1999/xlink">
<g id="graph0" class="graph" transform="scale(1 1) rotate(0) translate(4 111.5)">
<title>Graphical Class Hierarchy</title>
<polygon fill="white" stroke="transparent" points="-4,4 -4,-111.5 254,-111.5 254,4 -4,4"/>
<!-- Node55 -->
<g id="node1" class="node">
<title>Node55</title>
<g id="a_node1"><a xlink:title="STL class.">
<polygon fill="white" stroke="#bfbfbf" points="0,-50 0,-69 80,-69 80,-50 0,-50"/>
<text text-anchor="middle" x="40" y="-57" font-family="Helvetica,sans-Serif" font-size="10.00">std::complex</text>
</a>
</g>
</g>
<!-- Node0 -->
<g id="node2" class="node">
<title>Node0</title>
<g id="a_node2"><a xlink:href="structgsl_1_1complex_3_01double_01_4.html" target="_top" xlink:title="Specialization of gsl::complex for double.">
<polygon fill="white" stroke="black" points="116,-88 116,-107 250,-107 250,-88 116,-88"/>
<text text-anchor="middle" x="183" y="-95" font-family="Helvetica,sans-Serif" font-size="10.00">gsl::complex&lt; double &gt;</text>
</a>
</g>
</g>
<!-- Node55&#45;&gt;Node0 -->
<g id="edge1" class="edge">
<title>Node55&#45;&gt;Node0</title>
<path fill="none" stroke="midnightblue" d="M86.44,-71.75C105.87,-76.98 128.23,-83.01 146.43,-87.91"/>
<polygon fill="midnightblue" stroke="midnightblue" points="87.15,-68.31 76.58,-69.09 85.32,-75.07 87.15,-68.31"/>
</g>
<!-- Node57 -->
<g id="node3" class="node">
<title>Node57</title>
<g id="a_node3"><a xlink:href="structgsl_1_1complex_3_01float_01_4.html" target="_top" xlink:title="Specialization of gsl::complex for float.">
<polygon fill="white" stroke="black" points="121.5,-50 121.5,-69 244.5,-69 244.5,-50 121.5,-50"/>
<text text-anchor="middle" x="183" y="-57" font-family="Helvetica,sans-Serif" font-size="10.00">gsl::complex&lt; float &gt;</text>
</a>
</g>
</g>
<!-- Node55&#45;&gt;Node57 -->
<g id="edge2" class="edge">
<title>Node55&#45;&gt;Node57</title>
<path fill="none" stroke="midnightblue" d="M90.41,-59.5C100.38,-59.5 110.98,-59.5 121.29,-59.5"/>
<polygon fill="midnightblue" stroke="midnightblue" points="90.28,-56 80.28,-59.5 90.28,-63 90.28,-56"/>
</g>
<!-- Node58 -->
<g id="node4" class="node">
<title>Node58</title>
<g id="a_node4"><a xlink:href="structgsl_1_1complex_3_01long_01double_01_4.html" target="_top" xlink:title="Specialization of gsl::complex for long double.">
<polygon fill="white" stroke="black" points="127.5,-0.5 127.5,-30.5 238.5,-30.5 238.5,-0.5 127.5,-0.5"/>
<text text-anchor="start" x="135.5" y="-18.5" font-family="Helvetica,sans-Serif" font-size="10.00">gsl::complex&lt; long</text>
<text text-anchor="middle" x="183" y="-7.5" font-family="Helvetica,sans-Serif" font-size="10.00"> double &gt;</text>
</a>
</g>
</g>
<!-- Node55&#45;&gt;Node58 -->
<g id="edge3" class="edge">
<title>Node55&#45;&gt;Node58</title>
<path fill="none" stroke="midnightblue" d="M81.37,-46.9C97.7,-41.81 116.68,-35.88 133.72,-30.57"/>
<polygon fill="midnightblue" stroke="midnightblue" points="80.1,-43.63 71.59,-49.95 82.18,-50.31 80.1,-43.63"/>
</g>
</g>
</svg>
