<?xml version="1.0" encoding="UTF-8" standalone="no"?>
<!DOCTYPE svg PUBLIC "-//W3C//DTD SVG 1.1//EN"
 "http://www.w3.org/Graphics/SVG/1.1/DTD/svg11.dtd">
<!-- Generated by graphviz version 2.43.0 (0)
 -->
<!-- Title: Graphical Class Hierarchy Pages: 1 -->
<svg width="401pt" height="39pt"
 viewBox="0.00 0.00 401.00 39.00" xmlns="http://www.w3.org/2000/svg" xmlns:xlink="http://www.w3.org/1999/xlink">
<g id="graph0" class="graph" transform="scale(1 1) rotate(0) translate(4 35)">
<title>Graphical Class Hierarchy</title>
<polygon fill="white" stroke="transparent" points="-4,4 -4,-35 397,-35 397,4 -4,4"/>
<!-- Node0 -->
<g id="node1" class="node">
<title>Node0</title>
<g id="a_node1"><a xlink:href="classgsl_1_1v__stor.html" target="_top" xlink:title=" ">
<polygon fill="white" stroke="black" points="0,-6 0,-25 109,-25 109,-6 0,-6"/>
<text text-anchor="middle" x="54.5" y="-13" font-family="Helvetica,sans-Serif" font-size="10.00">gsl::v_stor&lt; T, N &gt;</text>
</a>
</g>
</g>
<!-- Node1 -->
<g id="node2" class="node">
<title>Node1</title>
<g id="a_node2"><a xlink:href="structgsl_1_1v__iface.html" target="_top" xlink:title=" ">
<polygon fill="white" stroke="black" points="145,-0.5 145,-30.5 249,-30.5 249,-0.5 145,-0.5"/>
<text text-anchor="start" x="153" y="-18.5" font-family="Helvetica,sans-Serif" font-size="10.00">gsl::v_iface&lt; T, 0,</text>
<text text-anchor="middle" x="197" y="-7.5" font-family="Helvetica,sans-Serif" font-size="10.00"> v_stor &gt;</text>
</a>
</g>
</g>
<!-- Node0&#45;&gt;Node1 -->
<g id="edge1" class="edge">
<title>Node0&#45;&gt;Node1</title>
<path fill="none" stroke="midnightblue" d="M119.09,-15.5C127.75,-15.5 136.55,-15.5 144.95,-15.5"/>
<polygon fill="midnightblue" stroke="midnightblue" points="119.02,-12 109.02,-15.5 119.02,-19 119.02,-12"/>
</g>
<!-- Node2 -->
<g id="node3" class="node">
<title>Node2</title>
<g id="a_node3"><a xlink:href="structgsl_1_1vector.html" target="_top" xlink:title="Constructor&#45;type for vector whose storage is owned by instance of vector.">
<polygon fill="white" stroke="black" points="285,-6 285,-25 393,-25 393,-6 285,-6"/>
<text text-anchor="middle" x="339" y="-13" font-family="Helvetica,sans-Serif" font-size="10.00">gsl::vector&lt; T, S &gt;</text>
</a>
</g>
</g>
<!-- Node1&#45;&gt;Node2 -->
<g id="edge2" class="edge">
<title>Node1&#45;&gt;Node2</title>
<path fill="none" stroke="midnightblue" d="M259.5,-15.5C267.93,-15.5 276.53,-15.5 284.79,-15.5"/>
<polygon fill="midnightblue" stroke="midnightblue" points="259.34,-12 249.34,-15.5 259.34,-19 259.34,-12"/>
</g>
</g>
</svg>
