<?xml version="1.0" encoding="UTF-8" standalone="no"?>
<!DOCTYPE svg PUBLIC "-//W3C//DTD SVG 1.1//EN"
 "http://www.w3.org/Graphics/SVG/1.1/DTD/svg11.dtd">
<!-- Generated by graphviz version 2.43.0 (0)
 -->
<!-- Title: include/gslcpp/wrap/is&#45;complex.hpp Pages: 1 -->
<svg width="377pt" height="66pt"
 viewBox="0.00 0.00 377.00 66.00" xmlns="http://www.w3.org/2000/svg" xmlns:xlink="http://www.w3.org/1999/xlink">
<g id="graph0" class="graph" transform="scale(1 1) rotate(0) translate(4 62)">
<title>include/gslcpp/wrap/is&#45;complex.hpp</title>
<polygon fill="white" stroke="transparent" points="-4,4 -4,-62 373,-62 373,4 -4,4"/>
<!-- Node1 -->
<g id="node1" class="node">
<title>Node1</title>
<g id="a_node1"><a xlink:title="Definition of gsl::is_complex, gsl::is_complex_v.">
<polygon fill="#bfbfbf" stroke="black" points="0,-14 0,-44 113,-44 113,-14 0,-14"/>
<text text-anchor="start" x="8" y="-32" font-family="Helvetica,sans-Serif" font-size="10.00">include/gslcpp/wrap</text>
<text text-anchor="middle" x="56.5" y="-21" font-family="Helvetica,sans-Serif" font-size="10.00">/is&#45;complex.hpp</text>
</a>
</g>
</g>
<!-- Node2 -->
<g id="node2" class="node">
<title>Node2</title>
<g id="a_node2"><a xlink:href="complex_8hpp.html" target="_top" xlink:title="Definition of gsl::complex.">
<polygon fill="white" stroke="black" points="149,-19.5 149,-38.5 229,-38.5 229,-19.5 149,-19.5"/>
<text text-anchor="middle" x="189" y="-26.5" font-family="Helvetica,sans-Serif" font-size="10.00">complex.hpp</text>
</a>
</g>
</g>
<!-- Node1&#45;&gt;Node2 -->
<g id="edge1" class="edge">
<title>Node1&#45;&gt;Node2</title>
<path fill="none" stroke="midnightblue" d="M113.22,-29C121.6,-29 130.19,-29 138.43,-29"/>
<polygon fill="midnightblue" stroke="midnightblue" points="138.63,-32.5 148.63,-29 138.63,-25.5 138.63,-32.5"/>
</g>
<!-- Node3 -->
<g id="node3" class="node">
<title>Node3</title>
<g id="a_node3"><a xlink:title=" ">
<polygon fill="white" stroke="#bfbfbf" points="287.5,-38.5 287.5,-57.5 346.5,-57.5 346.5,-38.5 287.5,-38.5"/>
<text text-anchor="middle" x="317" y="-45.5" font-family="Helvetica,sans-Serif" font-size="10.00">complex</text>
</a>
</g>
</g>
<!-- Node2&#45;&gt;Node3 -->
<g id="edge2" class="edge">
<title>Node2&#45;&gt;Node3</title>
<path fill="none" stroke="midnightblue" d="M229.18,-34.91C244.44,-37.21 261.89,-39.84 277.12,-42.14"/>
<polygon fill="midnightblue" stroke="midnightblue" points="276.85,-45.64 287.26,-43.67 277.89,-38.71 276.85,-45.64"/>
</g>
<!-- Node4 -->
<g id="node4" class="node">
<title>Node4</title>
<g id="a_node4"><a xlink:title=" ">
<polygon fill="white" stroke="#bfbfbf" points="265,-0.5 265,-19.5 369,-19.5 369,-0.5 265,-0.5"/>
<text text-anchor="middle" x="317" y="-7.5" font-family="Helvetica,sans-Serif" font-size="10.00">gsl/gsl_complex.h</text>
</a>
</g>
</g>
<!-- Node2&#45;&gt;Node4 -->
<g id="edge3" class="edge">
<title>Node2&#45;&gt;Node4</title>
<path fill="none" stroke="midnightblue" d="M229.18,-23.09C237.28,-21.87 245.99,-20.56 254.67,-19.25"/>
<polygon fill="midnightblue" stroke="midnightblue" points="255.42,-22.67 264.79,-17.72 254.38,-15.75 255.42,-22.67"/>
</g>
</g>
</svg>
