<?xml version="1.0" encoding="UTF-8" standalone="no"?>
<!DOCTYPE svg PUBLIC "-//W3C//DTD SVG 1.1//EN"
 "http://www.w3.org/Graphics/SVG/1.1/DTD/svg11.dtd">
<!-- Generated by graphviz version 2.43.0 (0)
 -->
<!-- Title: include/gslcpp/wrap/isnonneg.hpp Pages: 1 -->
<svg width="511pt" height="123pt"
 viewBox="0.00 0.00 511.00 123.00" xmlns="http://www.w3.org/2000/svg" xmlns:xlink="http://www.w3.org/1999/xlink">
<g id="graph0" class="graph" transform="scale(1 1) rotate(0) translate(4 119)">
<title>include/gslcpp/wrap/isnonneg.hpp</title>
<polygon fill="white" stroke="transparent" points="-4,4 -4,-119 507,-119 507,4 -4,4"/>
<!-- Node1 -->
<g id="node1" class="node">
<title>Node1</title>
<g id="a_node1"><a xlink:title="Definition of gsl::w_isnonneg().">
<polygon fill="#bfbfbf" stroke="black" points="0,-33 0,-63 113,-63 113,-33 0,-33"/>
<text text-anchor="start" x="8" y="-51" font-family="Helvetica,sans-Serif" font-size="10.00">include/gslcpp/wrap</text>
<text text-anchor="middle" x="56.5" y="-40" font-family="Helvetica,sans-Serif" font-size="10.00">/isnonneg.hpp</text>
</a>
</g>
</g>
<!-- Node2 -->
<g id="node2" class="node">
<title>Node2</title>
<g id="a_node2"><a xlink:href="container_8hpp.html" target="_top" xlink:title="Definition of gsl::container, w_vector, w_vector_view, w_matrix, w_matrix_view.">
<polygon fill="white" stroke="black" points="149,-38.5 149,-57.5 232,-57.5 232,-38.5 149,-38.5"/>
<text text-anchor="middle" x="190.5" y="-45.5" font-family="Helvetica,sans-Serif" font-size="10.00">container.hpp</text>
</a>
</g>
</g>
<!-- Node1&#45;&gt;Node2 -->
<g id="edge1" class="edge">
<title>Node1&#45;&gt;Node2</title>
<path fill="none" stroke="midnightblue" d="M113.1,-48C121.61,-48 130.37,-48 138.77,-48"/>
<polygon fill="midnightblue" stroke="midnightblue" points="138.81,-51.5 148.81,-48 138.81,-44.5 138.81,-51.5"/>
</g>
<!-- Node3 -->
<g id="node3" class="node">
<title>Node3</title>
<g id="a_node3"><a xlink:href="complex_8hpp.html" target="_top" xlink:title="Definition of gsl::complex.">
<polygon fill="white" stroke="black" points="275.5,-76.5 275.5,-95.5 355.5,-95.5 355.5,-76.5 275.5,-76.5"/>
<text text-anchor="middle" x="315.5" y="-83.5" font-family="Helvetica,sans-Serif" font-size="10.00">complex.hpp</text>
</a>
</g>
</g>
<!-- Node2&#45;&gt;Node3 -->
<g id="edge2" class="edge">
<title>Node2&#45;&gt;Node3</title>
<path fill="none" stroke="midnightblue" d="M222.54,-57.59C237.98,-62.36 256.85,-68.19 273.47,-73.32"/>
<polygon fill="midnightblue" stroke="midnightblue" points="272.88,-76.81 283.47,-76.41 274.95,-70.12 272.88,-76.81"/>
</g>
<!-- Node6 -->
<g id="node6" class="node">
<title>Node6</title>
<g id="a_node6"><a xlink:title=" ">
<polygon fill="white" stroke="#bfbfbf" points="268,-38.5 268,-57.5 363,-57.5 363,-38.5 268,-38.5"/>
<text text-anchor="middle" x="315.5" y="-45.5" font-family="Helvetica,sans-Serif" font-size="10.00">gsl/gsl_matrix.h</text>
</a>
</g>
</g>
<!-- Node2&#45;&gt;Node6 -->
<g id="edge5" class="edge">
<title>Node2&#45;&gt;Node6</title>
<path fill="none" stroke="midnightblue" d="M232.12,-48C240.36,-48 249.18,-48 257.87,-48"/>
<polygon fill="midnightblue" stroke="midnightblue" points="257.96,-51.5 267.96,-48 257.96,-44.5 257.96,-51.5"/>
</g>
<!-- Node7 -->
<g id="node7" class="node">
<title>Node7</title>
<g id="a_node7"><a xlink:title=" ">
<polygon fill="white" stroke="#bfbfbf" points="269.5,-0.5 269.5,-19.5 361.5,-19.5 361.5,-0.5 269.5,-0.5"/>
<text text-anchor="middle" x="315.5" y="-7.5" font-family="Helvetica,sans-Serif" font-size="10.00">gsl/gsl_vector.h</text>
</a>
</g>
</g>
<!-- Node2&#45;&gt;Node7 -->
<g id="edge6" class="edge">
<title>Node2&#45;&gt;Node7</title>
<path fill="none" stroke="midnightblue" d="M222.54,-38.41C237.98,-33.64 256.85,-27.81 273.47,-22.68"/>
<polygon fill="midnightblue" stroke="midnightblue" points="274.95,-25.88 283.47,-19.59 272.88,-19.19 274.95,-25.88"/>
</g>
<!-- Node4 -->
<g id="node4" class="node">
<title>Node4</title>
<g id="a_node4"><a xlink:title=" ">
<polygon fill="white" stroke="#bfbfbf" points="421.5,-95.5 421.5,-114.5 480.5,-114.5 480.5,-95.5 421.5,-95.5"/>
<text text-anchor="middle" x="451" y="-102.5" font-family="Helvetica,sans-Serif" font-size="10.00">complex</text>
</a>
</g>
</g>
<!-- Node3&#45;&gt;Node4 -->
<g id="edge3" class="edge">
<title>Node3&#45;&gt;Node4</title>
<path fill="none" stroke="midnightblue" d="M355.83,-91.6C373.16,-94.06 393.46,-96.95 410.78,-99.42"/>
<polygon fill="midnightblue" stroke="midnightblue" points="410.72,-102.94 421.11,-100.89 411.71,-96.01 410.72,-102.94"/>
</g>
<!-- Node5 -->
<g id="node5" class="node">
<title>Node5</title>
<g id="a_node5"><a xlink:title=" ">
<polygon fill="white" stroke="#bfbfbf" points="399,-57.5 399,-76.5 503,-76.5 503,-57.5 399,-57.5"/>
<text text-anchor="middle" x="451" y="-64.5" font-family="Helvetica,sans-Serif" font-size="10.00">gsl/gsl_complex.h</text>
</a>
</g>
</g>
<!-- Node3&#45;&gt;Node5 -->
<g id="edge4" class="edge">
<title>Node3&#45;&gt;Node5</title>
<path fill="none" stroke="midnightblue" d="M355.83,-80.4C366.08,-78.94 377.37,-77.34 388.46,-75.76"/>
<polygon fill="midnightblue" stroke="midnightblue" points="389.16,-79.19 398.56,-74.32 388.17,-72.26 389.16,-79.19"/>
</g>
</g>
</svg>
