<?xml version="1.0" encoding="UTF-8" standalone="no"?>
<!DOCTYPE svg PUBLIC "-//W3C//DTD SVG 1.1//EN"
 "http://www.w3.org/Graphics/SVG/1.1/DTD/svg11.dtd">
<!-- Generated by graphviz version 2.43.0 (0)
 -->
<!-- Title: include/gslcpp/wrap/real.hpp Pages: 1 -->
<svg width="440pt" height="78pt"
 viewBox="0.00 0.00 440.00 77.50" xmlns="http://www.w3.org/2000/svg" xmlns:xlink="http://www.w3.org/1999/xlink">
<g id="graph0" class="graph" transform="scale(1 1) rotate(0) translate(4 73.5)">
<title>include/gslcpp/wrap/real.hpp</title>
<polygon fill="white" stroke="transparent" points="-4,4 -4,-73.5 436,-73.5 436,4 -4,4"/>
<!-- Node1 -->
<g id="node1" class="node">
<title>Node1</title>
<g id="a_node1"><a xlink:title="Definition of gsl::w_real().">
<polygon fill="#bfbfbf" stroke="black" points="0,-17 0,-47 113,-47 113,-17 0,-17"/>
<text text-anchor="start" x="8" y="-35" font-family="Helvetica,sans-Serif" font-size="10.00">include/gslcpp/wrap</text>
<text text-anchor="middle" x="56.5" y="-24" font-family="Helvetica,sans-Serif" font-size="10.00">/real.hpp</text>
</a>
</g>
</g>
<!-- Node2 -->
<g id="node2" class="node">
<title>Node2</title>
<g id="a_node2"><a xlink:href="v-iface_8hpp.html" target="_top" xlink:title="Definition for gsl::v_iface.">
<polygon fill="white" stroke="black" points="149,-17 149,-47 256,-47 256,-17 149,-17"/>
<text text-anchor="start" x="157" y="-35" font-family="Helvetica,sans-Serif" font-size="10.00">include/gslcpp/vec</text>
<text text-anchor="middle" x="202.5" y="-24" font-family="Helvetica,sans-Serif" font-size="10.00">/v&#45;iface.hpp</text>
</a>
</g>
</g>
<!-- Node1&#45;&gt;Node2 -->
<g id="edge1" class="edge">
<title>Node1&#45;&gt;Node2</title>
<path fill="none" stroke="midnightblue" d="M123.45,-32C131.95,-32 140.56,-32 148.81,-32"/>
<polygon fill="midnightblue" stroke="midnightblue" points="123.17,-28.5 113.17,-32 123.17,-35.5 123.17,-28.5"/>
</g>
<!-- Node3 -->
<g id="node3" class="node">
<title>Node3</title>
<g id="a_node3"><a xlink:href="vector-view_8hpp.html" target="_top" xlink:title="Definition for gsl::vector_view.">
<polygon fill="white" stroke="black" points="302,-39 302,-69 422,-69 422,-39 302,-39"/>
<text text-anchor="start" x="310" y="-57" font-family="Helvetica,sans-Serif" font-size="10.00">include/gslcpp/vector</text>
<text text-anchor="middle" x="362" y="-46" font-family="Helvetica,sans-Serif" font-size="10.00">&#45;view.hpp</text>
</a>
</g>
</g>
<!-- Node2&#45;&gt;Node3 -->
<g id="edge2" class="edge">
<title>Node2&#45;&gt;Node3</title>
<path fill="none" stroke="midnightblue" d="M266.46,-40.79C278.1,-42.42 290.22,-44.11 301.75,-45.72"/>
<polygon fill="midnightblue" stroke="midnightblue" points="266.77,-37.3 256.38,-39.39 265.8,-44.24 266.77,-37.3"/>
</g>
<!-- Node4 -->
<g id="node4" class="node">
<title>Node4</title>
<g id="a_node4"><a xlink:href="vector_8hpp.html" target="_top" xlink:title="Definition for gsl::vector.">
<polygon fill="white" stroke="black" points="292,-0.5 292,-19.5 432,-19.5 432,-0.5 292,-0.5"/>
<text text-anchor="middle" x="362" y="-7.5" font-family="Helvetica,sans-Serif" font-size="10.00">include/gslcpp/vector.hpp</text>
</a>
</g>
</g>
<!-- Node2&#45;&gt;Node4 -->
<g id="edge3" class="edge">
<title>Node2&#45;&gt;Node4</title>
<path fill="none" stroke="midnightblue" d="M266.44,-23.21C275.13,-21.99 284.09,-20.74 292.87,-19.52"/>
<polygon fill="midnightblue" stroke="midnightblue" points="265.8,-19.76 256.38,-24.61 266.77,-26.7 265.8,-19.76"/>
</g>
</g>
</svg>
