<?xml version="1.0" encoding="UTF-8" standalone="no"?>
<!DOCTYPE svg PUBLIC "-//W3C//DTD SVG 1.1//EN"
 "http://www.w3.org/Graphics/SVG/1.1/DTD/svg11.dtd">
<!-- Generated by graphviz version 2.43.0 (0)
 -->
<!-- Title: gsl::vector_view&lt; T, S &gt; Pages: 1 -->
<svg width="635pt" height="66pt"
 viewBox="0.00 0.00 635.00 66.00" xmlns="http://www.w3.org/2000/svg" xmlns:xlink="http://www.w3.org/1999/xlink">
<g id="graph0" class="graph" transform="scale(1 1) rotate(0) translate(4 62)">
<title>gsl::vector_view&lt; T, S &gt;</title>
<polygon fill="white" stroke="transparent" points="-4,4 -4,-62 631,-62 631,4 -4,4"/>
<!-- Node1 -->
<g id="node1" class="node">
<title>Node1</title>
<g id="a_node1"><a xlink:title="Constructor&#45;type for vector&#45;by&#45;reference whose storage is not owned by instance of view.">
<polygon fill="#bfbfbf" stroke="black" points="490,-19.5 490,-38.5 627,-38.5 627,-19.5 490,-19.5"/>
<text text-anchor="middle" x="558.5" y="-26.5" font-family="Helvetica,sans-Serif" font-size="10.00">gsl::vector_view&lt; T, S &gt;</text>
</a>
</g>
</g>
<!-- Node2 -->
<g id="node2" class="node">
<title>Node2</title>
<g id="a_node2"><a xlink:href="structgsl_1_1v__iface.html" target="_top" xlink:title=" ">
<polygon fill="white" stroke="black" points="349,-14 349,-44 453,-44 453,-14 349,-14"/>
<text text-anchor="start" x="357" y="-32" font-family="Helvetica,sans-Serif" font-size="10.00">gsl::v_iface&lt; T, 0,</text>
<text text-anchor="middle" x="401" y="-21" font-family="Helvetica,sans-Serif" font-size="10.00"> v_view &gt;</text>
</a>
</g>
</g>
<!-- Node2&#45;&gt;Node1 -->
<g id="edge1" class="edge">
<title>Node2&#45;&gt;Node1</title>
<path fill="none" stroke="midnightblue" d="M463.39,-29C472.07,-29 481.05,-29 489.84,-29"/>
<polygon fill="midnightblue" stroke="midnightblue" points="463.35,-25.5 453.35,-29 463.35,-32.5 463.35,-25.5"/>
</g>
<!-- Node3 -->
<g id="node3" class="node">
<title>Node3</title>
<g id="a_node3"><a xlink:href="classgsl_1_1v__view.html" target="_top" xlink:title="Interface to vector&#45;storage not owned by interface.">
<polygon fill="white" stroke="black" points="108.5,-38.5 108.5,-57.5 221.5,-57.5 221.5,-38.5 108.5,-38.5"/>
<text text-anchor="middle" x="165" y="-45.5" font-family="Helvetica,sans-Serif" font-size="10.00">gsl::v_view&lt; T, N &gt;</text>
</a>
</g>
</g>
<!-- Node3&#45;&gt;Node2 -->
<g id="edge2" class="edge">
<title>Node3&#45;&gt;Node2</title>
<path fill="none" stroke="midnightblue" d="M231.94,-42.65C268.92,-39.64 314.37,-35.95 348.67,-33.17"/>
<polygon fill="midnightblue" stroke="midnightblue" points="231.44,-39.18 221.75,-43.47 232,-46.15 231.44,-39.18"/>
</g>
<!-- Node4 -->
<g id="node4" class="node">
<title>Node4</title>
<g id="a_node4"><a xlink:href="structgsl_1_1v__iface.html" target="_top" xlink:title="Interface for every kind of vector.">
<polygon fill="white" stroke="black" points="102,-0.5 102,-19.5 228,-19.5 228,-0.5 102,-0.5"/>
<text text-anchor="middle" x="165" y="-7.5" font-family="Helvetica,sans-Serif" font-size="10.00">gsl::v_iface&lt; T, N, S &gt;</text>
</a>
</g>
</g>
<!-- Node4&#45;&gt;Node2 -->
<g id="edge3" class="edge">
<title>Node4&#45;&gt;Node2</title>
<path fill="none" stroke="orange" stroke-dasharray="5,2" d="M238.39,-12.55C267.25,-13.93 300.74,-15.99 331,-19 336.78,-19.58 342.82,-20.29 348.82,-21.06"/>
<polygon fill="orange" stroke="orange" points="238.54,-9.05 228.39,-12.09 238.22,-16.04 238.54,-9.05"/>
<text text-anchor="middle" x="288.5" y="-22" font-family="Helvetica,sans-Serif" font-size="10.00"> &lt; T, 0, v_view &gt;</text>
</g>
<!-- Node5 -->
<g id="node5" class="node">
<title>Node5</title>
<g id="a_node5"><a xlink:title=" ">
<polygon fill="white" stroke="#bfbfbf" points="0,-0.5 0,-19.5 65,-19.5 65,-0.5 0,-0.5"/>
<text text-anchor="middle" x="32.5" y="-7.5" font-family="Helvetica,sans-Serif" font-size="10.00">S&lt; T, N &gt;</text>
</a>
</g>
</g>
<!-- Node5&#45;&gt;Node4 -->
<g id="edge4" class="edge">
<title>Node5&#45;&gt;Node4</title>
<path fill="none" stroke="midnightblue" d="M75.11,-10C83.61,-10 92.73,-10 101.77,-10"/>
<polygon fill="midnightblue" stroke="midnightblue" points="75.09,-6.5 65.09,-10 75.09,-13.5 75.09,-6.5"/>
</g>
</g>
</svg>
