<?xml version="1.0" encoding="UTF-8" standalone="no"?>
<!DOCTYPE svg PUBLIC "-//W3C//DTD SVG 1.1//EN"
 "http://www.w3.org/Graphics/SVG/1.1/DTD/svg11.dtd">
<!-- Generated by graphviz version 2.43.0 (0)
 -->
<!-- Title: gsl::v_iface&lt; T, N, S &gt; Pages: 1 -->
<svg width="635pt" height="88pt"
 viewBox="0.00 0.00 635.00 88.00" xmlns="http://www.w3.org/2000/svg" xmlns:xlink="http://www.w3.org/1999/xlink">
<g id="graph0" class="graph" transform="scale(1 1) rotate(0) translate(4 84)">
<title>gsl::v_iface&lt; T, N, S &gt;</title>
<polygon fill="white" stroke="transparent" points="-4,4 -4,-84 631,-84 631,4 -4,4"/>
<!-- Node1 -->
<g id="node1" class="node">
<title>Node1</title>
<g id="a_node1"><a xlink:title="Interface for every kind of vector.">
<polygon fill="#bfbfbf" stroke="black" points="102,-30 102,-49 228,-49 228,-30 102,-30"/>
<text text-anchor="middle" x="165" y="-37" font-family="Helvetica,sans-Serif" font-size="10.00">gsl::v_iface&lt; T, N, S &gt;</text>
</a>
</g>
</g>
<!-- Node3 -->
<g id="node3" class="node">
<title>Node3</title>
<g id="a_node3"><a xlink:href="structgsl_1_1v__iface.html" target="_top" xlink:title=" ">
<polygon fill="white" stroke="black" points="349,-49.5 349,-79.5 453,-79.5 453,-49.5 349,-49.5"/>
<text text-anchor="start" x="357" y="-67.5" font-family="Helvetica,sans-Serif" font-size="10.00">gsl::v_iface&lt; T, 0,</text>
<text text-anchor="middle" x="401" y="-56.5" font-family="Helvetica,sans-Serif" font-size="10.00"> v_view &gt;</text>
</a>
</g>
</g>
<!-- Node1&#45;&gt;Node3 -->
<g id="edge2" class="edge">
<title>Node1&#45;&gt;Node3</title>
<path fill="none" stroke="orange" stroke-dasharray="5,2" d="M238.46,-47.24C274.16,-51.06 316.37,-55.57 348.69,-59.02"/>
<polygon fill="orange" stroke="orange" points="238.41,-43.72 228.09,-46.13 237.66,-50.68 238.41,-43.72"/>
<text text-anchor="middle" x="288.5" y="-59.5" font-family="Helvetica,sans-Serif" font-size="10.00"> &lt; T, 0, v_view &gt;</text>
</g>
<!-- Node5 -->
<g id="node5" class="node">
<title>Node5</title>
<g id="a_node5"><a xlink:href="structgsl_1_1v__iface.html" target="_top" xlink:title=" ">
<polygon fill="white" stroke="black" points="349,-0.5 349,-30.5 453,-30.5 453,-0.5 349,-0.5"/>
<text text-anchor="start" x="357" y="-18.5" font-family="Helvetica,sans-Serif" font-size="10.00">gsl::v_iface&lt; T, 0,</text>
<text text-anchor="middle" x="401" y="-7.5" font-family="Helvetica,sans-Serif" font-size="10.00"> v_stor &gt;</text>
</a>
</g>
</g>
<!-- Node1&#45;&gt;Node5 -->
<g id="edge4" class="edge">
<title>Node1&#45;&gt;Node5</title>
<path fill="none" stroke="orange" stroke-dasharray="5,2" d="M236.2,-28.68C239.51,-28.26 242.79,-27.87 246,-27.5 280.24,-23.6 318.91,-20.59 348.93,-18.56"/>
<polygon fill="orange" stroke="orange" points="235.68,-25.22 226.22,-30 236.59,-32.16 235.68,-25.22"/>
<text text-anchor="middle" x="288.5" y="-30.5" font-family="Helvetica,sans-Serif" font-size="10.00"> &lt; T, 0, v_stor &gt;</text>
</g>
<!-- Node2 -->
<g id="node2" class="node">
<title>Node2</title>
<g id="a_node2"><a xlink:title=" ">
<polygon fill="white" stroke="#bfbfbf" points="0,-30 0,-49 65,-49 65,-30 0,-30"/>
<text text-anchor="middle" x="32.5" y="-37" font-family="Helvetica,sans-Serif" font-size="10.00">S&lt; T, N &gt;</text>
</a>
</g>
</g>
<!-- Node2&#45;&gt;Node1 -->
<g id="edge1" class="edge">
<title>Node2&#45;&gt;Node1</title>
<path fill="none" stroke="midnightblue" d="M75.11,-39.5C83.61,-39.5 92.73,-39.5 101.77,-39.5"/>
<polygon fill="midnightblue" stroke="midnightblue" points="75.09,-36 65.09,-39.5 75.09,-43 75.09,-36"/>
</g>
<!-- Node4 -->
<g id="node4" class="node">
<title>Node4</title>
<g id="a_node4"><a xlink:href="structgsl_1_1vector__view.html" target="_top" xlink:title="Constructor&#45;type for vector&#45;by&#45;reference whose storage is not owned by instance of view.">
<polygon fill="white" stroke="black" points="490,-55 490,-74 627,-74 627,-55 490,-55"/>
<text text-anchor="middle" x="558.5" y="-62" font-family="Helvetica,sans-Serif" font-size="10.00">gsl::vector_view&lt; T, S &gt;</text>
</a>
</g>
</g>
<!-- Node3&#45;&gt;Node4 -->
<g id="edge3" class="edge">
<title>Node3&#45;&gt;Node4</title>
<path fill="none" stroke="midnightblue" d="M463.39,-64.5C472.07,-64.5 481.05,-64.5 489.84,-64.5"/>
<polygon fill="midnightblue" stroke="midnightblue" points="463.35,-61 453.35,-64.5 463.35,-68 463.35,-61"/>
</g>
<!-- Node6 -->
<g id="node6" class="node">
<title>Node6</title>
<g id="a_node6"><a xlink:href="structgsl_1_1vector.html" target="_top" xlink:title="Constructor&#45;type for vector whose storage is owned by instance of vector.">
<polygon fill="white" stroke="black" points="504.5,-6 504.5,-25 612.5,-25 612.5,-6 504.5,-6"/>
<text text-anchor="middle" x="558.5" y="-13" font-family="Helvetica,sans-Serif" font-size="10.00">gsl::vector&lt; T, S &gt;</text>
</a>
</g>
</g>
<!-- Node5&#45;&gt;Node6 -->
<g id="edge5" class="edge">
<title>Node5&#45;&gt;Node6</title>
<path fill="none" stroke="midnightblue" d="M463.51,-15.5C477.01,-15.5 491.2,-15.5 504.34,-15.5"/>
<polygon fill="midnightblue" stroke="midnightblue" points="463.35,-12 453.35,-15.5 463.35,-19 463.35,-12"/>
</g>
</g>
</svg>
