<?xml version="1.0" encoding="UTF-8" standalone="no"?>
<!DOCTYPE svg PUBLIC "-//W3C//DTD SVG 1.1//EN"
 "http://www.w3.org/Graphics/SVG/1.1/DTD/svg11.dtd">
<!-- Generated by graphviz version 2.43.0 (0)
 -->
<!-- Title: gsl::vector&lt; T, S &gt; Pages: 1 -->
<svg width="768pt" height="67pt"
 viewBox="0.00 0.00 768.00 67.00" xmlns="http://www.w3.org/2000/svg" xmlns:xlink="http://www.w3.org/1999/xlink">
<g id="graph0" class="graph" transform="scale(1 1) rotate(0) translate(4 63)">
<title>gsl::vector&lt; T, S &gt;</title>
<polygon fill="white" stroke="transparent" points="-4,4 -4,-63 764,-63 764,4 -4,4"/>
<!-- Node1 -->
<g id="node1" class="node">
<title>Node1</title>
<g id="a_node1"><a xlink:title="Constructor&#45;type for vector whose storage is owned by instance of vector.">
<polygon fill="#bfbfbf" stroke="black" points="652,-19.5 652,-38.5 760,-38.5 760,-19.5 652,-19.5"/>
<text text-anchor="middle" x="706" y="-26.5" font-family="Helvetica,sans-Serif" font-size="10.00">gsl::vector&lt; T, S &gt;</text>
</a>
</g>
</g>
<!-- Node2 -->
<g id="node2" class="node">
<title>Node2</title>
<g id="a_node2"><a xlink:href="structgsl_1_1v__iface.html" target="_top" xlink:title=" ">
<polygon fill="white" stroke="black" points="511,-14 511,-44 615,-44 615,-14 511,-14"/>
<text text-anchor="start" x="519" y="-32" font-family="Helvetica,sans-Serif" font-size="10.00">gsl::v_iface&lt; T, 0,</text>
<text text-anchor="middle" x="563" y="-21" font-family="Helvetica,sans-Serif" font-size="10.00"> v_stor &gt;</text>
</a>
</g>
</g>
<!-- Node2&#45;&gt;Node1 -->
<g id="edge1" class="edge">
<title>Node2&#45;&gt;Node1</title>
<path fill="none" stroke="midnightblue" d="M625.42,-29C634.14,-29 643.05,-29 651.6,-29"/>
<polygon fill="midnightblue" stroke="midnightblue" points="625.3,-25.5 615.3,-29 625.3,-32.5 625.3,-25.5"/>
</g>
<!-- Node3 -->
<g id="node3" class="node">
<title>Node3</title>
<g id="a_node3"><a xlink:href="classgsl_1_1v__stor.html" target="_top" xlink:title=" ">
<polygon fill="white" stroke="black" points="277.5,-38.5 277.5,-57.5 386.5,-57.5 386.5,-38.5 277.5,-38.5"/>
<text text-anchor="middle" x="332" y="-45.5" font-family="Helvetica,sans-Serif" font-size="10.00">gsl::v_stor&lt; T, N &gt;</text>
</a>
</g>
</g>
<!-- Node3&#45;&gt;Node2 -->
<g id="edge2" class="edge">
<title>Node3&#45;&gt;Node2</title>
<path fill="none" stroke="midnightblue" d="M397.05,-42.69C432.91,-39.71 477.03,-36.05 510.61,-33.26"/>
<polygon fill="midnightblue" stroke="midnightblue" points="396.37,-39.23 386.69,-43.55 396.95,-46.21 396.37,-39.23"/>
</g>
<!-- Node4 -->
<g id="node4" class="node">
<title>Node4</title>
<g id="a_node4"><a xlink:href="classgsl_1_1v__stor.html" target="_top" xlink:title="Generic v_stor is interface to storage with two key properties: (1) that size of storage is known sta...">
<polygon fill="white" stroke="black" points="80,-38.5 80,-57.5 187,-57.5 187,-38.5 80,-38.5"/>
<text text-anchor="middle" x="133.5" y="-45.5" font-family="Helvetica,sans-Serif" font-size="10.00">gsl::v_stor&lt; T, S &gt;</text>
</a>
</g>
</g>
<!-- Node4&#45;&gt;Node3 -->
<g id="edge3" class="edge">
<title>Node4&#45;&gt;Node3</title>
<path fill="none" stroke="orange" stroke-dasharray="5,2" d="M197.19,-48C222.93,-48 252.43,-48 277.17,-48"/>
<polygon fill="orange" stroke="orange" points="197.16,-44.5 187.16,-48 197.16,-51.5 197.16,-44.5"/>
<text text-anchor="middle" x="228" y="-51" font-family="Helvetica,sans-Serif" font-size="10.00"> &lt; T, N &gt;</text>
</g>
<!-- Node5 -->
<g id="node5" class="node">
<title>Node5</title>
<g id="a_node5"><a xlink:title=" ">
<polygon fill="white" stroke="#bfbfbf" points="0,-38.5 0,-57.5 29,-57.5 29,-38.5 0,-38.5"/>
<text text-anchor="middle" x="14.5" y="-45.5" font-family="Helvetica,sans-Serif" font-size="10.00">T</text>
</a>
</g>
</g>
<!-- Node5&#45;&gt;Node4 -->
<g id="edge4" class="edge">
<title>Node5&#45;&gt;Node4</title>
<path fill="none" stroke="#9a32cd" stroke-dasharray="5,2" d="M39.62,-48C51.31,-48 65.85,-48 79.93,-48"/>
<polygon fill="#9a32cd" stroke="#9a32cd" points="39.38,-44.5 29.38,-48 39.38,-51.5 39.38,-44.5"/>
<text text-anchor="middle" x="54.5" y="-51" font-family="Helvetica,sans-Serif" font-size="10.00"> d_</text>
</g>
<!-- Node6 -->
<g id="node6" class="node">
<title>Node6</title>
<g id="a_node6"><a xlink:href="structgsl_1_1v__iface.html" target="_top" xlink:title="Interface for every kind of vector.">
<polygon fill="white" stroke="black" points="269,-0.5 269,-19.5 395,-19.5 395,-0.5 269,-0.5"/>
<text text-anchor="middle" x="332" y="-7.5" font-family="Helvetica,sans-Serif" font-size="10.00">gsl::v_iface&lt; T, N, S &gt;</text>
</a>
</g>
</g>
<!-- Node6&#45;&gt;Node2 -->
<g id="edge5" class="edge">
<title>Node6&#45;&gt;Node2</title>
<path fill="none" stroke="orange" stroke-dasharray="5,2" d="M405.65,-14.27C433.05,-16.08 464.48,-18.37 493,-21 498.76,-21.53 504.79,-22.15 510.78,-22.79"/>
<polygon fill="orange" stroke="orange" points="405.57,-10.76 395.36,-13.61 405.11,-17.75 405.57,-10.76"/>
<text text-anchor="middle" x="453" y="-24" font-family="Helvetica,sans-Serif" font-size="10.00"> &lt; T, 0, v_stor &gt;</text>
</g>
<!-- Node7 -->
<g id="node7" class="node">
<title>Node7</title>
<g id="a_node7"><a xlink:title=" ">
<polygon fill="white" stroke="#bfbfbf" points="101,-0.5 101,-19.5 166,-19.5 166,-0.5 101,-0.5"/>
<text text-anchor="middle" x="133.5" y="-7.5" font-family="Helvetica,sans-Serif" font-size="10.00">S&lt; T, N &gt;</text>
</a>
</g>
</g>
<!-- Node7&#45;&gt;Node6 -->
<g id="edge6" class="edge">
<title>Node7&#45;&gt;Node6</title>
<path fill="none" stroke="midnightblue" d="M176.31,-10C203.26,-10 238.76,-10 268.96,-10"/>
<polygon fill="midnightblue" stroke="midnightblue" points="176.07,-6.5 166.07,-10 176.07,-13.5 176.07,-6.5"/>
</g>
</g>
</svg>
