<?xml version="1.0" encoding="UTF-8" standalone="no"?>
<!DOCTYPE svg PUBLIC "-//W3C//DTD SVG 1.1//EN"
 "http://www.w3.org/Graphics/SVG/1.1/DTD/svg11.dtd">
<!-- Generated by graphviz version 2.43.0 (0)
 -->
<!-- Title: include/gslcpp/wrap/swap&#45;elements.hpp Pages: 1 -->
<svg width="443pt" height="78pt"
 viewBox="0.00 0.00 443.00 77.50" xmlns="http://www.w3.org/2000/svg" xmlns:xlink="http://www.w3.org/1999/xlink">
<g id="graph0" class="graph" transform="scale(1 1) rotate(0) translate(4 73.5)">
<title>include/gslcpp/wrap/swap&#45;elements.hpp</title>
<polygon fill="white" stroke="transparent" points="-4,4 -4,-73.5 439,-73.5 439,4 -4,4"/>
<!-- Node1 -->
<g id="node1" class="node">
<title>Node1</title>
<g id="a_node1"><a xlink:title="Definition of gsl::w_swap_elements().">
<polygon fill="#bfbfbf" stroke="black" points="0,-17 0,-47 116,-47 116,-17 0,-17"/>
<text text-anchor="start" x="8" y="-35" font-family="Helvetica,sans-Serif" font-size="10.00">include/gslcpp/wrap</text>
<text text-anchor="middle" x="58" y="-24" font-family="Helvetica,sans-Serif" font-size="10.00">/swap&#45;elements.hpp</text>
</a>
</g>
</g>
<!-- Node2 -->
<g id="node2" class="node">
<title>Node2</title>
<g id="a_node2"><a xlink:href="v-iface_8hpp.html" target="_top" xlink:title="Definition for gsl::v_iface.">
<polygon fill="white" stroke="black" points="152,-17 152,-47 259,-47 259,-17 152,-17"/>
<text text-anchor="start" x="160" y="-35" font-family="Helvetica,sans-Serif" font-size="10.00">include/gslcpp/vec</text>
<text text-anchor="middle" x="205.5" y="-24" font-family="Helvetica,sans-Serif" font-size="10.00">/v&#45;iface.hpp</text>
</a>
</g>
</g>
<!-- Node1&#45;&gt;Node2 -->
<g id="edge1" class="edge">
<title>Node1&#45;&gt;Node2</title>
<path fill="none" stroke="midnightblue" d="M126.14,-32C134.76,-32 143.5,-32 151.85,-32"/>
<polygon fill="midnightblue" stroke="midnightblue" points="126.09,-28.5 116.09,-32 126.09,-35.5 126.09,-28.5"/>
</g>
<!-- Node3 -->
<g id="node3" class="node">
<title>Node3</title>
<g id="a_node3"><a xlink:href="vector-view_8hpp.html" target="_top" xlink:title="Definition for gsl::vector_view.">
<polygon fill="white" stroke="black" points="305,-39 305,-69 425,-69 425,-39 305,-39"/>
<text text-anchor="start" x="313" y="-57" font-family="Helvetica,sans-Serif" font-size="10.00">include/gslcpp/vector</text>
<text text-anchor="middle" x="365" y="-46" font-family="Helvetica,sans-Serif" font-size="10.00">&#45;view.hpp</text>
</a>
</g>
</g>
<!-- Node2&#45;&gt;Node3 -->
<g id="edge2" class="edge">
<title>Node2&#45;&gt;Node3</title>
<path fill="none" stroke="midnightblue" d="M269.46,-40.79C281.1,-42.42 293.22,-44.11 304.75,-45.72"/>
<polygon fill="midnightblue" stroke="midnightblue" points="269.77,-37.3 259.38,-39.39 268.8,-44.24 269.77,-37.3"/>
</g>
<!-- Node4 -->
<g id="node4" class="node">
<title>Node4</title>
<g id="a_node4"><a xlink:href="vector_8hpp.html" target="_top" xlink:title="Definition for gsl::vector.">
<polygon fill="white" stroke="black" points="295,-0.5 295,-19.5 435,-19.5 435,-0.5 295,-0.5"/>
<text text-anchor="middle" x="365" y="-7.5" font-family="Helvetica,sans-Serif" font-size="10.00">include/gslcpp/vector.hpp</text>
</a>
</g>
</g>
<!-- Node2&#45;&gt;Node4 -->
<g id="edge3" class="edge">
<title>Node2&#45;&gt;Node4</title>
<path fill="none" stroke="midnightblue" d="M269.44,-23.21C278.13,-21.99 287.09,-20.74 295.87,-19.52"/>
<polygon fill="midnightblue" stroke="midnightblue" points="268.8,-19.76 259.38,-24.61 269.77,-26.7 268.8,-19.76"/>
</g>
</g>
</svg>
