<?xml version="1.0" encoding="UTF-8" standalone="no"?>
<!DOCTYPE svg PUBLIC "-//W3C//DTD SVG 1.1//EN"
 "http://www.w3.org/Graphics/SVG/1.1/DTD/svg11.dtd">
<!-- Generated by graphviz version 2.43.0 (0)
 -->
<!-- Title: include/gslcpp/wrap/swap&#45;elements.hpp Pages: 1 -->
<svg width="514pt" height="123pt"
 viewBox="0.00 0.00 514.00 123.00" xmlns="http://www.w3.org/2000/svg" xmlns:xlink="http://www.w3.org/1999/xlink">
<g id="graph0" class="graph" transform="scale(1 1) rotate(0) translate(4 119)">
<title>include/gslcpp/wrap/swap&#45;elements.hpp</title>
<polygon fill="white" stroke="transparent" points="-4,4 -4,-119 510,-119 510,4 -4,4"/>
<!-- Node1 -->
<g id="node1" class="node">
<title>Node1</title>
<g id="a_node1"><a xlink:title="Definition of gsl::w_swap_elements().">
<polygon fill="#bfbfbf" stroke="black" points="0,-33 0,-63 116,-63 116,-33 0,-33"/>
<text text-anchor="start" x="8" y="-51" font-family="Helvetica,sans-Serif" font-size="10.00">include/gslcpp/wrap</text>
<text text-anchor="middle" x="58" y="-40" font-family="Helvetica,sans-Serif" font-size="10.00">/swap&#45;elements.hpp</text>
</a>
</g>
</g>
<!-- Node2 -->
<g id="node2" class="node">
<title>Node2</title>
<g id="a_node2"><a xlink:href="container_8hpp.html" target="_top" xlink:title="Definition of gsl::container, w_vector, w_vector_view, w_matrix, w_matrix_view.">
<polygon fill="white" stroke="black" points="152,-38.5 152,-57.5 235,-57.5 235,-38.5 152,-38.5"/>
<text text-anchor="middle" x="193.5" y="-45.5" font-family="Helvetica,sans-Serif" font-size="10.00">container.hpp</text>
</a>
</g>
</g>
<!-- Node1&#45;&gt;Node2 -->
<g id="edge1" class="edge">
<title>Node1&#45;&gt;Node2</title>
<path fill="none" stroke="midnightblue" d="M116,-48C124.57,-48 133.35,-48 141.77,-48"/>
<polygon fill="midnightblue" stroke="midnightblue" points="141.83,-51.5 151.83,-48 141.83,-44.5 141.83,-51.5"/>
</g>
<!-- Node3 -->
<g id="node3" class="node">
<title>Node3</title>
<g id="a_node3"><a xlink:href="complex_8hpp.html" target="_top" xlink:title="Definition of gsl::complex.">
<polygon fill="white" stroke="black" points="278.5,-76.5 278.5,-95.5 358.5,-95.5 358.5,-76.5 278.5,-76.5"/>
<text text-anchor="middle" x="318.5" y="-83.5" font-family="Helvetica,sans-Serif" font-size="10.00">complex.hpp</text>
</a>
</g>
</g>
<!-- Node2&#45;&gt;Node3 -->
<g id="edge2" class="edge">
<title>Node2&#45;&gt;Node3</title>
<path fill="none" stroke="midnightblue" d="M225.54,-57.59C240.98,-62.36 259.85,-68.19 276.47,-73.32"/>
<polygon fill="midnightblue" stroke="midnightblue" points="275.88,-76.81 286.47,-76.41 277.95,-70.12 275.88,-76.81"/>
</g>
<!-- Node6 -->
<g id="node6" class="node">
<title>Node6</title>
<g id="a_node6"><a xlink:title=" ">
<polygon fill="white" stroke="#bfbfbf" points="271,-38.5 271,-57.5 366,-57.5 366,-38.5 271,-38.5"/>
<text text-anchor="middle" x="318.5" y="-45.5" font-family="Helvetica,sans-Serif" font-size="10.00">gsl/gsl_matrix.h</text>
</a>
</g>
</g>
<!-- Node2&#45;&gt;Node6 -->
<g id="edge5" class="edge">
<title>Node2&#45;&gt;Node6</title>
<path fill="none" stroke="midnightblue" d="M235.12,-48C243.36,-48 252.18,-48 260.87,-48"/>
<polygon fill="midnightblue" stroke="midnightblue" points="260.96,-51.5 270.96,-48 260.96,-44.5 260.96,-51.5"/>
</g>
<!-- Node7 -->
<g id="node7" class="node">
<title>Node7</title>
<g id="a_node7"><a xlink:title=" ">
<polygon fill="white" stroke="#bfbfbf" points="272.5,-0.5 272.5,-19.5 364.5,-19.5 364.5,-0.5 272.5,-0.5"/>
<text text-anchor="middle" x="318.5" y="-7.5" font-family="Helvetica,sans-Serif" font-size="10.00">gsl/gsl_vector.h</text>
</a>
</g>
</g>
<!-- Node2&#45;&gt;Node7 -->
<g id="edge6" class="edge">
<title>Node2&#45;&gt;Node7</title>
<path fill="none" stroke="midnightblue" d="M225.54,-38.41C240.98,-33.64 259.85,-27.81 276.47,-22.68"/>
<polygon fill="midnightblue" stroke="midnightblue" points="277.95,-25.88 286.47,-19.59 275.88,-19.19 277.95,-25.88"/>
</g>
<!-- Node4 -->
<g id="node4" class="node">
<title>Node4</title>
<g id="a_node4"><a xlink:title=" ">
<polygon fill="white" stroke="#bfbfbf" points="424.5,-95.5 424.5,-114.5 483.5,-114.5 483.5,-95.5 424.5,-95.5"/>
<text text-anchor="middle" x="454" y="-102.5" font-family="Helvetica,sans-Serif" font-size="10.00">complex</text>
</a>
</g>
</g>
<!-- Node3&#45;&gt;Node4 -->
<g id="edge3" class="edge">
<title>Node3&#45;&gt;Node4</title>
<path fill="none" stroke="midnightblue" d="M358.83,-91.6C376.16,-94.06 396.46,-96.95 413.78,-99.42"/>
<polygon fill="midnightblue" stroke="midnightblue" points="413.72,-102.94 424.11,-100.89 414.71,-96.01 413.72,-102.94"/>
</g>
<!-- Node5 -->
<g id="node5" class="node">
<title>Node5</title>
<g id="a_node5"><a xlink:title=" ">
<polygon fill="white" stroke="#bfbfbf" points="402,-57.5 402,-76.5 506,-76.5 506,-57.5 402,-57.5"/>
<text text-anchor="middle" x="454" y="-64.5" font-family="Helvetica,sans-Serif" font-size="10.00">gsl/gsl_complex.h</text>
</a>
</g>
</g>
<!-- Node3&#45;&gt;Node5 -->
<g id="edge4" class="edge">
<title>Node3&#45;&gt;Node5</title>
<path fill="none" stroke="midnightblue" d="M358.83,-80.4C369.08,-78.94 380.37,-77.34 391.46,-75.76"/>
<polygon fill="midnightblue" stroke="midnightblue" points="392.16,-79.19 401.56,-74.32 391.17,-72.26 392.16,-79.19"/>
</g>
</g>
</svg>
