<?xml version="1.0" encoding="UTF-8" standalone="no"?>
<!DOCTYPE svg PUBLIC "-//W3C//DTD SVG 1.1//EN"
 "http://www.w3.org/Graphics/SVG/1.1/DTD/svg11.dtd">
<!-- Generated by graphviz version 2.43.0 (0)
 -->
<!-- Title: include/gslcpp/vec/v&#45;iface.hpp Pages: 1 -->
<svg width="291pt" height="78pt"
 viewBox="0.00 0.00 291.00 77.50" xmlns="http://www.w3.org/2000/svg" xmlns:xlink="http://www.w3.org/1999/xlink">
<g id="graph0" class="graph" transform="scale(1 1) rotate(0) translate(4 73.5)">
<title>include/gslcpp/vec/v&#45;iface.hpp</title>
<polygon fill="white" stroke="transparent" points="-4,4 -4,-73.5 287,-73.5 287,4 -4,4"/>
<!-- Node1 -->
<g id="node1" class="node">
<title>Node1</title>
<g id="a_node1"><a xlink:title="Definition for gsl::v_iface.">
<polygon fill="#bfbfbf" stroke="black" points="0,-17 0,-47 107,-47 107,-17 0,-17"/>
<text text-anchor="start" x="8" y="-35" font-family="Helvetica,sans-Serif" font-size="10.00">include/gslcpp/vec</text>
<text text-anchor="middle" x="53.5" y="-24" font-family="Helvetica,sans-Serif" font-size="10.00">/v&#45;iface.hpp</text>
</a>
</g>
</g>
<!-- Node2 -->
<g id="node2" class="node">
<title>Node2</title>
<g id="a_node2"><a xlink:href="vector-view_8hpp.html" target="_top" xlink:title="Definition for gsl::vector_view.">
<polygon fill="white" stroke="black" points="153,-39 153,-69 273,-69 273,-39 153,-39"/>
<text text-anchor="start" x="161" y="-57" font-family="Helvetica,sans-Serif" font-size="10.00">include/gslcpp/vector</text>
<text text-anchor="middle" x="213" y="-46" font-family="Helvetica,sans-Serif" font-size="10.00">&#45;view.hpp</text>
</a>
</g>
</g>
<!-- Node1&#45;&gt;Node2 -->
<g id="edge1" class="edge">
<title>Node1&#45;&gt;Node2</title>
<path fill="none" stroke="midnightblue" d="M117.46,-40.79C129.1,-42.42 141.22,-44.11 152.75,-45.72"/>
<polygon fill="midnightblue" stroke="midnightblue" points="117.77,-37.3 107.38,-39.39 116.8,-44.24 117.77,-37.3"/>
</g>
<!-- Node3 -->
<g id="node3" class="node">
<title>Node3</title>
<g id="a_node3"><a xlink:href="vector_8hpp.html" target="_top" xlink:title="Definition for gsl::vector.">
<polygon fill="white" stroke="black" points="143,-0.5 143,-19.5 283,-19.5 283,-0.5 143,-0.5"/>
<text text-anchor="middle" x="213" y="-7.5" font-family="Helvetica,sans-Serif" font-size="10.00">include/gslcpp/vector.hpp</text>
</a>
</g>
</g>
<!-- Node1&#45;&gt;Node3 -->
<g id="edge2" class="edge">
<title>Node1&#45;&gt;Node3</title>
<path fill="none" stroke="midnightblue" d="M117.44,-23.21C126.13,-21.99 135.09,-20.74 143.87,-19.52"/>
<polygon fill="midnightblue" stroke="midnightblue" points="116.8,-19.76 107.38,-24.61 117.77,-26.7 116.8,-19.76"/>
</g>
</g>
</svg>
