<?xml version="1.0" encoding="UTF-8" standalone="no"?>
<!DOCTYPE svg PUBLIC "-//W3C//DTD SVG 1.1//EN"
 "http://www.w3.org/Graphics/SVG/1.1/DTD/svg11.dtd">
<!-- Generated by graphviz version 2.43.0 (0)
 -->
<!-- Title: include/gslcpp/vec/v&#45;stor.hpp Pages: 1 -->
<svg width="678pt" height="154pt"
 viewBox="0.00 0.00 678.00 153.50" xmlns="http://www.w3.org/2000/svg" xmlns:xlink="http://www.w3.org/1999/xlink">
<g id="graph0" class="graph" transform="scale(1 1) rotate(0) translate(4 149.5)">
<title>include/gslcpp/vec/v&#45;stor.hpp</title>
<polygon fill="white" stroke="transparent" points="-4,4 -4,-149.5 674,-149.5 674,4 -4,4"/>
<!-- Node1 -->
<g id="node1" class="node">
<title>Node1</title>
<g id="a_node1"><a xlink:title="Definition for gsl::v_stor.">
<polygon fill="#bfbfbf" stroke="black" points="0,-63.5 0,-93.5 107,-93.5 107,-63.5 0,-63.5"/>
<text text-anchor="start" x="8" y="-81.5" font-family="Helvetica,sans-Serif" font-size="10.00">include/gslcpp/vec</text>
<text text-anchor="middle" x="53.5" y="-70.5" font-family="Helvetica,sans-Serif" font-size="10.00">/v&#45;stor.hpp</text>
</a>
</g>
</g>
<!-- Node2 -->
<g id="node2" class="node">
<title>Node2</title>
<g id="a_node2"><a xlink:href="free_8hpp.html" target="_top" xlink:title="Definition of gsl::w_free().">
<polygon fill="white" stroke="black" points="165,-126 165,-145 258,-145 258,-126 165,-126"/>
<text text-anchor="middle" x="211.5" y="-133" font-family="Helvetica,sans-Serif" font-size="10.00">../wrap/free.hpp</text>
</a>
</g>
</g>
<!-- Node1&#45;&gt;Node2 -->
<g id="edge1" class="edge">
<title>Node1&#45;&gt;Node2</title>
<path fill="none" stroke="midnightblue" d="M86.88,-93.61C103.46,-101.04 124.08,-109.81 143,-116.5 149.48,-118.79 156.38,-121 163.2,-123.04"/>
<polygon fill="midnightblue" stroke="midnightblue" points="162.51,-126.48 173.09,-125.91 164.46,-119.76 162.51,-126.48"/>
</g>
<!-- Node9 -->
<g id="node9" class="node">
<title>Node9</title>
<g id="a_node9"><a xlink:href="vector-alloc_8hpp.html" target="_top" xlink:title="Definition of gsl::w_vector_alloc&lt;E&gt;(size_t).">
<polygon fill="white" stroke="black" points="146,-88 146,-107 277,-107 277,-88 146,-88"/>
<text text-anchor="middle" x="211.5" y="-95" font-family="Helvetica,sans-Serif" font-size="10.00">../wrap/vector&#45;alloc.hpp</text>
</a>
</g>
</g>
<!-- Node1&#45;&gt;Node9 -->
<g id="edge8" class="edge">
<title>Node1&#45;&gt;Node9</title>
<path fill="none" stroke="midnightblue" d="M107.31,-84.93C116.5,-86.05 126.21,-87.23 135.84,-88.41"/>
<polygon fill="midnightblue" stroke="midnightblue" points="135.49,-91.89 145.84,-89.62 136.33,-84.94 135.49,-91.89"/>
</g>
<!-- Node10 -->
<g id="node10" class="node">
<title>Node10</title>
<g id="a_node10"><a xlink:href="vector-calloc_8hpp.html" target="_top" xlink:title="Definition of gsl::w_vector_calloc&lt;E&gt;(size_t).">
<polygon fill="white" stroke="black" points="143,-50 143,-69 280,-69 280,-50 143,-50"/>
<text text-anchor="middle" x="211.5" y="-57" font-family="Helvetica,sans-Serif" font-size="10.00">../wrap/vector&#45;calloc.hpp</text>
</a>
</g>
</g>
<!-- Node1&#45;&gt;Node10 -->
<g id="edge10" class="edge">
<title>Node1&#45;&gt;Node10</title>
<path fill="none" stroke="midnightblue" d="M107.31,-72.07C115.51,-71.07 124.12,-70.02 132.73,-68.97"/>
<polygon fill="midnightblue" stroke="midnightblue" points="133.3,-72.43 142.81,-67.74 132.46,-65.48 133.3,-72.43"/>
</g>
<!-- Node11 -->
<g id="node11" class="node">
<title>Node11</title>
<g id="a_node11"><a xlink:href="vector-view-array_8hpp.html" target="_top" xlink:title="Definition of gsl::w_vector_view_array().">
<polygon fill="white" stroke="black" points="156.5,-0.5 156.5,-30.5 266.5,-30.5 266.5,-0.5 156.5,-0.5"/>
<text text-anchor="start" x="164.5" y="-18.5" font-family="Helvetica,sans-Serif" font-size="10.00">../wrap/vector&#45;view</text>
<text text-anchor="middle" x="211.5" y="-7.5" font-family="Helvetica,sans-Serif" font-size="10.00">&#45;array.hpp</text>
</a>
</g>
</g>
<!-- Node1&#45;&gt;Node11 -->
<g id="edge12" class="edge">
<title>Node1&#45;&gt;Node11</title>
<path fill="none" stroke="midnightblue" d="M88.37,-63.48C104.79,-56.32 124.83,-47.76 143,-40.5 148.35,-38.36 153.97,-36.18 159.58,-34.05"/>
<polygon fill="midnightblue" stroke="midnightblue" points="160.84,-37.31 168.96,-30.51 158.37,-30.76 160.84,-37.31"/>
</g>
<!-- Node3 -->
<g id="node3" class="node">
<title>Node3</title>
<g id="a_node3"><a xlink:href="container_8hpp.html" target="_top" xlink:title="Definition of gsl::container, w_vector, w_vector_view, w_matrix, w_matrix_view.">
<polygon fill="white" stroke="black" points="316,-69 316,-88 399,-88 399,-69 316,-69"/>
<text text-anchor="middle" x="357.5" y="-76" font-family="Helvetica,sans-Serif" font-size="10.00">container.hpp</text>
</a>
</g>
</g>
<!-- Node2&#45;&gt;Node3 -->
<g id="edge2" class="edge">
<title>Node2&#45;&gt;Node3</title>
<path fill="none" stroke="midnightblue" d="M251.1,-125.97C260.66,-123.25 270.8,-120.04 280,-116.5 297.37,-109.81 316.09,-100.55 330.67,-92.84"/>
<polygon fill="midnightblue" stroke="midnightblue" points="332.44,-95.86 339.6,-88.04 329.13,-89.69 332.44,-95.86"/>
</g>
<!-- Node4 -->
<g id="node4" class="node">
<title>Node4</title>
<g id="a_node4"><a xlink:href="complex_8hpp.html" target="_top" xlink:title="Definition of gsl::complex.">
<polygon fill="white" stroke="black" points="442.5,-107 442.5,-126 522.5,-126 522.5,-107 442.5,-107"/>
<text text-anchor="middle" x="482.5" y="-114" font-family="Helvetica,sans-Serif" font-size="10.00">complex.hpp</text>
</a>
</g>
</g>
<!-- Node3&#45;&gt;Node4 -->
<g id="edge3" class="edge">
<title>Node3&#45;&gt;Node4</title>
<path fill="none" stroke="midnightblue" d="M389.54,-88.09C404.98,-92.86 423.85,-98.69 440.47,-103.82"/>
<polygon fill="midnightblue" stroke="midnightblue" points="439.88,-107.31 450.47,-106.91 441.95,-100.62 439.88,-107.31"/>
</g>
<!-- Node7 -->
<g id="node7" class="node">
<title>Node7</title>
<g id="a_node7"><a xlink:title=" ">
<polygon fill="white" stroke="#bfbfbf" points="435,-69 435,-88 530,-88 530,-69 435,-69"/>
<text text-anchor="middle" x="482.5" y="-76" font-family="Helvetica,sans-Serif" font-size="10.00">gsl/gsl_matrix.h</text>
</a>
</g>
</g>
<!-- Node3&#45;&gt;Node7 -->
<g id="edge6" class="edge">
<title>Node3&#45;&gt;Node7</title>
<path fill="none" stroke="midnightblue" d="M399.12,-78.5C407.36,-78.5 416.18,-78.5 424.87,-78.5"/>
<polygon fill="midnightblue" stroke="midnightblue" points="424.96,-82 434.96,-78.5 424.96,-75 424.96,-82"/>
</g>
<!-- Node8 -->
<g id="node8" class="node">
<title>Node8</title>
<g id="a_node8"><a xlink:title=" ">
<polygon fill="white" stroke="#bfbfbf" points="436.5,-31 436.5,-50 528.5,-50 528.5,-31 436.5,-31"/>
<text text-anchor="middle" x="482.5" y="-38" font-family="Helvetica,sans-Serif" font-size="10.00">gsl/gsl_vector.h</text>
</a>
</g>
</g>
<!-- Node3&#45;&gt;Node8 -->
<g id="edge7" class="edge">
<title>Node3&#45;&gt;Node8</title>
<path fill="none" stroke="midnightblue" d="M389.54,-68.91C404.98,-64.14 423.85,-58.31 440.47,-53.18"/>
<polygon fill="midnightblue" stroke="midnightblue" points="441.95,-56.38 450.47,-50.09 439.88,-49.69 441.95,-56.38"/>
</g>
<!-- Node5 -->
<g id="node5" class="node">
<title>Node5</title>
<g id="a_node5"><a xlink:title=" ">
<polygon fill="white" stroke="#bfbfbf" points="588.5,-126 588.5,-145 647.5,-145 647.5,-126 588.5,-126"/>
<text text-anchor="middle" x="618" y="-133" font-family="Helvetica,sans-Serif" font-size="10.00">complex</text>
</a>
</g>
</g>
<!-- Node4&#45;&gt;Node5 -->
<g id="edge4" class="edge">
<title>Node4&#45;&gt;Node5</title>
<path fill="none" stroke="midnightblue" d="M522.83,-122.1C540.16,-124.56 560.46,-127.45 577.78,-129.92"/>
<polygon fill="midnightblue" stroke="midnightblue" points="577.72,-133.44 588.11,-131.39 578.71,-126.51 577.72,-133.44"/>
</g>
<!-- Node6 -->
<g id="node6" class="node">
<title>Node6</title>
<g id="a_node6"><a xlink:title=" ">
<polygon fill="white" stroke="#bfbfbf" points="566,-88 566,-107 670,-107 670,-88 566,-88"/>
<text text-anchor="middle" x="618" y="-95" font-family="Helvetica,sans-Serif" font-size="10.00">gsl/gsl_complex.h</text>
</a>
</g>
</g>
<!-- Node4&#45;&gt;Node6 -->
<g id="edge5" class="edge">
<title>Node4&#45;&gt;Node6</title>
<path fill="none" stroke="midnightblue" d="M522.83,-110.9C533.08,-109.44 544.37,-107.84 555.46,-106.26"/>
<polygon fill="midnightblue" stroke="midnightblue" points="556.16,-109.69 565.56,-104.82 555.17,-102.76 556.16,-109.69"/>
</g>
<!-- Node9&#45;&gt;Node3 -->
<g id="edge9" class="edge">
<title>Node9&#45;&gt;Node3</title>
<path fill="none" stroke="midnightblue" d="M277.34,-88.94C286.88,-87.69 296.6,-86.4 305.81,-85.19"/>
<polygon fill="midnightblue" stroke="midnightblue" points="306.49,-88.63 315.94,-83.85 305.57,-81.69 306.49,-88.63"/>
</g>
<!-- Node10&#45;&gt;Node3 -->
<g id="edge11" class="edge">
<title>Node10&#45;&gt;Node3</title>
<path fill="none" stroke="midnightblue" d="M280.28,-68.44C288.8,-69.57 297.39,-70.7 305.58,-71.78"/>
<polygon fill="midnightblue" stroke="midnightblue" points="305.34,-75.28 315.71,-73.12 306.26,-68.34 305.34,-75.28"/>
</g>
<!-- Node11&#45;&gt;Node3 -->
<g id="edge13" class="edge">
<title>Node11&#45;&gt;Node3</title>
<path fill="none" stroke="midnightblue" d="M255.26,-30.56C263.53,-33.69 272.08,-37.08 280,-40.5 296.75,-47.74 315.07,-56.8 329.58,-64.25"/>
<polygon fill="midnightblue" stroke="midnightblue" points="328.03,-67.39 338.52,-68.89 331.25,-61.18 328.03,-67.39"/>
</g>
</g>
</svg>
