<?xml version="1.0" encoding="UTF-8" standalone="no"?>
<!DOCTYPE svg PUBLIC "-//W3C//DTD SVG 1.1//EN"
 "http://www.w3.org/Graphics/SVG/1.1/DTD/svg11.dtd">
<!-- Generated by graphviz version 2.43.0 (0)
 -->
<!-- Title: include/gslcpp/vec/v&#45;view.hpp Pages: 1 -->
<svg width="541pt" height="123pt"
 viewBox="0.00 0.00 541.00 123.00" xmlns="http://www.w3.org/2000/svg" xmlns:xlink="http://www.w3.org/1999/xlink">
<g id="graph0" class="graph" transform="scale(1 1) rotate(0) translate(4 119)">
<title>include/gslcpp/vec/v&#45;view.hpp</title>
<polygon fill="white" stroke="transparent" points="-4,4 -4,-119 537,-119 537,4 -4,4"/>
<!-- Node1 -->
<g id="node1" class="node">
<title>Node1</title>
<g id="a_node1"><a xlink:title="Definition for gsl::view.">
<polygon fill="#bfbfbf" stroke="black" points="0,-33 0,-63 107,-63 107,-33 0,-33"/>
<text text-anchor="start" x="8" y="-51" font-family="Helvetica,sans-Serif" font-size="10.00">include/gslcpp/vec</text>
<text text-anchor="middle" x="53.5" y="-40" font-family="Helvetica,sans-Serif" font-size="10.00">/v&#45;view.hpp</text>
</a>
</g>
</g>
<!-- Node2 -->
<g id="node2" class="node">
<title>Node2</title>
<g id="a_node2"><a xlink:href="container_8hpp.html" target="_top" xlink:title="Definition of gsl::container, w_vector, w_vector_view, w_matrix, w_matrix_view.">
<polygon fill="white" stroke="black" points="143,-38.5 143,-57.5 262,-57.5 262,-38.5 143,-38.5"/>
<text text-anchor="middle" x="202.5" y="-45.5" font-family="Helvetica,sans-Serif" font-size="10.00">../wrap/container.hpp</text>
</a>
</g>
</g>
<!-- Node1&#45;&gt;Node2 -->
<g id="edge1" class="edge">
<title>Node1&#45;&gt;Node2</title>
<path fill="none" stroke="midnightblue" d="M107.16,-48C115.5,-48 124.24,-48 132.89,-48"/>
<polygon fill="midnightblue" stroke="midnightblue" points="132.98,-51.5 142.98,-48 132.98,-44.5 132.98,-51.5"/>
</g>
<!-- Node3 -->
<g id="node3" class="node">
<title>Node3</title>
<g id="a_node3"><a xlink:href="complex_8hpp.html" target="_top" xlink:title="Definition of gsl::complex.">
<polygon fill="white" stroke="black" points="305.5,-76.5 305.5,-95.5 385.5,-95.5 385.5,-76.5 305.5,-76.5"/>
<text text-anchor="middle" x="345.5" y="-83.5" font-family="Helvetica,sans-Serif" font-size="10.00">complex.hpp</text>
</a>
</g>
</g>
<!-- Node2&#45;&gt;Node3 -->
<g id="edge2" class="edge">
<title>Node2&#45;&gt;Node3</title>
<path fill="none" stroke="midnightblue" d="M239.08,-57.59C257.28,-62.49 279.64,-68.52 299.07,-73.76"/>
<polygon fill="midnightblue" stroke="midnightblue" points="298.36,-77.19 308.93,-76.41 300.19,-70.43 298.36,-77.19"/>
</g>
<!-- Node6 -->
<g id="node6" class="node">
<title>Node6</title>
<g id="a_node6"><a xlink:title=" ">
<polygon fill="white" stroke="#bfbfbf" points="298,-38.5 298,-57.5 393,-57.5 393,-38.5 298,-38.5"/>
<text text-anchor="middle" x="345.5" y="-45.5" font-family="Helvetica,sans-Serif" font-size="10.00">gsl/gsl_matrix.h</text>
</a>
</g>
</g>
<!-- Node2&#45;&gt;Node6 -->
<g id="edge5" class="edge">
<title>Node2&#45;&gt;Node6</title>
<path fill="none" stroke="midnightblue" d="M262.07,-48C270.57,-48 279.31,-48 287.77,-48"/>
<polygon fill="midnightblue" stroke="midnightblue" points="287.92,-51.5 297.92,-48 287.92,-44.5 287.92,-51.5"/>
</g>
<!-- Node7 -->
<g id="node7" class="node">
<title>Node7</title>
<g id="a_node7"><a xlink:title=" ">
<polygon fill="white" stroke="#bfbfbf" points="299.5,-0.5 299.5,-19.5 391.5,-19.5 391.5,-0.5 299.5,-0.5"/>
<text text-anchor="middle" x="345.5" y="-7.5" font-family="Helvetica,sans-Serif" font-size="10.00">gsl/gsl_vector.h</text>
</a>
</g>
</g>
<!-- Node2&#45;&gt;Node7 -->
<g id="edge6" class="edge">
<title>Node2&#45;&gt;Node7</title>
<path fill="none" stroke="midnightblue" d="M239.08,-38.41C257.28,-33.51 279.64,-27.48 299.07,-22.24"/>
<polygon fill="midnightblue" stroke="midnightblue" points="300.19,-25.57 308.93,-19.59 298.36,-18.81 300.19,-25.57"/>
</g>
<!-- Node4 -->
<g id="node4" class="node">
<title>Node4</title>
<g id="a_node4"><a xlink:title=" ">
<polygon fill="white" stroke="#bfbfbf" points="451.5,-95.5 451.5,-114.5 510.5,-114.5 510.5,-95.5 451.5,-95.5"/>
<text text-anchor="middle" x="481" y="-102.5" font-family="Helvetica,sans-Serif" font-size="10.00">complex</text>
</a>
</g>
</g>
<!-- Node3&#45;&gt;Node4 -->
<g id="edge3" class="edge">
<title>Node3&#45;&gt;Node4</title>
<path fill="none" stroke="midnightblue" d="M385.83,-91.6C403.16,-94.06 423.46,-96.95 440.78,-99.42"/>
<polygon fill="midnightblue" stroke="midnightblue" points="440.72,-102.94 451.11,-100.89 441.71,-96.01 440.72,-102.94"/>
</g>
<!-- Node5 -->
<g id="node5" class="node">
<title>Node5</title>
<g id="a_node5"><a xlink:title=" ">
<polygon fill="white" stroke="#bfbfbf" points="429,-57.5 429,-76.5 533,-76.5 533,-57.5 429,-57.5"/>
<text text-anchor="middle" x="481" y="-64.5" font-family="Helvetica,sans-Serif" font-size="10.00">gsl/gsl_complex.h</text>
</a>
</g>
</g>
<!-- Node3&#45;&gt;Node5 -->
<g id="edge4" class="edge">
<title>Node3&#45;&gt;Node5</title>
<path fill="none" stroke="midnightblue" d="M385.83,-80.4C396.08,-78.94 407.37,-77.34 418.46,-75.76"/>
<polygon fill="midnightblue" stroke="midnightblue" points="419.16,-79.19 428.56,-74.32 418.17,-72.26 419.16,-79.19"/>
</g>
</g>
</svg>
