<?xml version="1.0" encoding="UTF-8" standalone="no"?>
<!DOCTYPE svg PUBLIC "-//W3C//DTD SVG 1.1//EN"
 "http://www.w3.org/Graphics/SVG/1.1/DTD/svg11.dtd">
<!-- Generated by graphviz version 2.43.0 (0)
 -->
<!-- Title: include/gslcpp/wrap/vector&#45;view&#45;array.hpp Pages: 1 -->
<svg width="465pt" height="88pt"
 viewBox="0.00 0.00 465.00 88.00" xmlns="http://www.w3.org/2000/svg" xmlns:xlink="http://www.w3.org/1999/xlink">
<g id="graph0" class="graph" transform="scale(1 1) rotate(0) translate(4 84)">
<title>include/gslcpp/wrap/vector&#45;view&#45;array.hpp</title>
<polygon fill="white" stroke="transparent" points="-4,4 -4,-84 461,-84 461,4 -4,4"/>
<!-- Node1 -->
<g id="node1" class="node">
<title>Node1</title>
<g id="a_node1"><a xlink:title="Definition of gsl::w_vector_view_array().">
<polygon fill="#bfbfbf" stroke="black" points="0,-24.5 0,-54.5 125,-54.5 125,-24.5 0,-24.5"/>
<text text-anchor="start" x="8" y="-42.5" font-family="Helvetica,sans-Serif" font-size="10.00">include/gslcpp/wrap</text>
<text text-anchor="middle" x="62.5" y="-31.5" font-family="Helvetica,sans-Serif" font-size="10.00">/vector&#45;view&#45;array.hpp</text>
</a>
</g>
</g>
<!-- Node2 -->
<g id="node2" class="node">
<title>Node2</title>
<g id="a_node2"><a xlink:href="v-stor_8hpp.html" target="_top" xlink:title="Definition for gsl::v_stor.">
<polygon fill="white" stroke="black" points="167.5,-49.5 167.5,-79.5 274.5,-79.5 274.5,-49.5 167.5,-49.5"/>
<text text-anchor="start" x="175.5" y="-67.5" font-family="Helvetica,sans-Serif" font-size="10.00">include/gslcpp/vec</text>
<text text-anchor="middle" x="221" y="-56.5" font-family="Helvetica,sans-Serif" font-size="10.00">/v&#45;stor.hpp</text>
</a>
</g>
</g>
<!-- Node1&#45;&gt;Node2 -->
<g id="edge1" class="edge">
<title>Node1&#45;&gt;Node2</title>
<path fill="none" stroke="midnightblue" d="M135.51,-51C146.18,-52.71 157.01,-54.44 167.19,-56.06"/>
<polygon fill="midnightblue" stroke="midnightblue" points="135.78,-47.5 125.35,-49.38 134.68,-54.41 135.78,-47.5"/>
</g>
<!-- Node4 -->
<g id="node4" class="node">
<title>Node4</title>
<g id="a_node4"><a xlink:href="vector-view_8hpp.html" target="_top" xlink:title="Definition for gsl::vector_view.">
<polygon fill="white" stroke="black" points="161,-0.5 161,-30.5 281,-30.5 281,-0.5 161,-0.5"/>
<text text-anchor="start" x="169" y="-18.5" font-family="Helvetica,sans-Serif" font-size="10.00">include/gslcpp/vector</text>
<text text-anchor="middle" x="221" y="-7.5" font-family="Helvetica,sans-Serif" font-size="10.00">&#45;view.hpp</text>
</a>
</g>
</g>
<!-- Node1&#45;&gt;Node4 -->
<g id="edge3" class="edge">
<title>Node1&#45;&gt;Node4</title>
<path fill="none" stroke="midnightblue" d="M135.33,-28.49C143.88,-27.17 152.54,-25.84 160.89,-24.56"/>
<polygon fill="midnightblue" stroke="midnightblue" points="134.71,-25.04 125.35,-30.01 135.77,-31.96 134.71,-25.04"/>
</g>
<!-- Node3 -->
<g id="node3" class="node">
<title>Node3</title>
<g id="a_node3"><a xlink:href="vector_8hpp.html" target="_top" xlink:title="Definition for gsl::vector.">
<polygon fill="white" stroke="black" points="317,-55 317,-74 457,-74 457,-55 317,-55"/>
<text text-anchor="middle" x="387" y="-62" font-family="Helvetica,sans-Serif" font-size="10.00">include/gslcpp/vector.hpp</text>
</a>
</g>
</g>
<!-- Node2&#45;&gt;Node3 -->
<g id="edge2" class="edge">
<title>Node2&#45;&gt;Node3</title>
<path fill="none" stroke="midnightblue" d="M285.03,-64.5C295.44,-64.5 306.29,-64.5 316.84,-64.5"/>
<polygon fill="midnightblue" stroke="midnightblue" points="284.79,-61 274.79,-64.5 284.79,-68 284.79,-61"/>
</g>
</g>
</svg>
